<svg width="24" height="24" viewBox="0 0 24 24" fill="none" xmlns="http://www.w3.org/2000/svg">
<path d="M9.90819 5.71949L10.5572 6.88243C11.1429 7.93191 10.9078 9.30863 9.98531 10.2311C9.98531 10.2311 8.86648 11.3501 10.8951 13.3788C12.9231 15.4068 14.0428 14.2886 14.0428 14.2886C14.9653 13.3661 16.342 13.131 17.3915 13.7167L18.5544 14.3657C20.1392 15.2501 20.3263 17.4726 18.9334 18.8656C18.0964 19.7026 17.071 20.3539 15.9375 20.3968C14.0294 20.4692 10.7889 19.9863 7.53831 16.7357C4.28774 13.485 3.80482 10.2445 3.87716 8.33642C3.92013 7.20293 4.57141 6.17755 5.40842 5.34055C6.80137 3.9476 9.02377 4.13476 9.90819 5.71949Z" fill="#050505"/>
</svg>
