<svg width="30" height="30" viewBox="0 0 30 30" fill="none" xmlns="http://www.w3.org/2000/svg">
<path d="M26.3334 10.0593C26.3334 9.13675 25.5848 8.38883 24.6623 8.38883C23.7391 8.38883 22.9905 9.13675 22.9905 10.0593C22.9905 10.5104 23.1698 10.9193 23.4605 11.2194C22.3239 13.5733 20.1512 14.3951 18.4674 13.6512C16.9676 12.9879 16.4143 11.0919 16.227 9.62286C16.8386 9.30128 17.2556 8.66074 17.2556 7.92154C17.2555 6.86007 16.3955 6 15.3334 6C14.2719 6 13.4112 6.86007 13.4112 7.92154C13.4112 8.66074 13.8281 9.30124 14.4398 9.62286C14.2525 11.0919 13.6993 12.9879 12.1994 13.6512C10.5155 14.3952 8.34292 13.5733 7.20626 11.2194C7.49699 10.9193 7.67626 10.5104 7.67626 10.0593C7.67626 9.13675 6.92766 8.38883 6.00516 8.38883C5.08198 8.38883 4.33337 9.13675 4.33337 10.0593C4.33337 10.9092 4.9685 11.6095 5.78894 11.7156L7.71514 18.7659H22.9516L24.8778 11.7156C25.6989 11.6095 26.3334 10.9092 26.3334 10.0593Z" fill="url(#paint0_linear_420_9420)"/>
<path d="M23.8848 21.7723C23.8848 22.4591 23.3283 23.0157 22.6408 23.0157H8.02602C7.33917 23.0157 6.78259 22.4591 6.78259 21.7723V21.6689C6.78259 20.9814 7.33917 20.4248 8.02602 20.4248H22.6408C23.3283 20.4248 23.8848 20.9814 23.8848 21.6689V21.7723Z" fill="url(#paint1_linear_420_9420)"/>
<defs>
<linearGradient id="paint0_linear_420_9420" x1="15.3334" y1="6" x2="15.3334" y2="18.7659" gradientUnits="userSpaceOnUse">
<stop stop-color="#FF999A"/>
<stop offset="1" stop-color="#FF4F4F"/>
</linearGradient>
<linearGradient id="paint1_linear_420_9420" x1="15.3337" y1="20.4248" x2="15.3337" y2="23.0157" gradientUnits="userSpaceOnUse">
<stop stop-color="#FF999A"/>
<stop offset="1" stop-color="#FF4F4F"/>
</linearGradient>
</defs>
</svg>
