<svg width="50" height="46" viewBox="0 0 50 46" fill="none" xmlns="http://www.w3.org/2000/svg">
<rect width="50" height="46" rx="10" fill="#FFF6EA"/>
<g clip-path="url(#clip0_67_918)">
<path d="M12 23C12 21.2493 12.3467 19.568 13.04 17.956C13.7333 16.344 14.652 14.9573 15.796 13.796C16.94 12.6347 18.3267 11.716 19.956 11.04C21.5853 10.364 23.2667 10.0173 25 10C26.768 10 28.458 10.3467 30.07 11.04C31.682 11.7333 33.06 12.652 34.204 13.796C35.348 14.94 36.2667 16.3267 36.96 17.956C37.6533 19.5853 38 21.2667 38 23C38 24.768 37.6533 26.4493 36.96 28.044C36.2667 29.6387 35.348 31.0253 34.204 32.204C33.06 33.3827 31.6733 34.31 30.044 34.986C28.4147 35.662 26.7333 36 25 36C23.2667 36 21.5853 35.662 19.956 34.986C18.3267 34.31 16.94 33.3827 15.796 32.204C14.652 31.0253 13.7333 29.6387 13.04 28.044C12.3467 26.4493 12 24.768 12 23ZM15.25 23C15.25 24.768 15.6833 26.406 16.55 27.914C17.4167 29.422 18.604 30.6007 20.112 31.45C21.62 32.2993 23.2493 32.7327 25 32.75C26.7507 32.7673 28.38 32.334 29.888 31.45C31.396 30.566 32.5833 29.3873 33.45 27.914C34.3167 26.4407 34.75 24.8027 34.75 23C34.75 21.1973 34.3167 19.568 33.45 18.112C32.5833 16.656 31.396 15.4773 29.888 14.576C28.38 13.6747 26.7507 13.2327 25 13.25C23.2493 13.2673 21.62 13.7093 20.112 14.576C18.604 15.4427 17.4167 16.6213 16.55 18.112C15.6833 19.6027 15.25 21.232 15.25 23ZM23.388 23V18.138C23.388 17.6873 23.544 17.306 23.856 16.994C24.168 16.682 24.5493 16.5173 25 16.5C25.4507 16.4827 25.832 16.6473 26.144 16.994C26.456 17.3407 26.6207 17.722 26.638 18.138V21.388H29.888C30.3213 21.388 30.7027 21.544 31.032 21.856C31.3613 22.168 31.5173 22.5493 31.5 23C31.4827 23.4507 31.3267 23.8407 31.032 24.17C30.7373 24.4993 30.356 24.6553 29.888 24.638H25C24.5493 24.638 24.168 24.482 23.856 24.17C23.544 23.858 23.388 23.468 23.388 23Z" fill="#FF9500"/>
</g>
<defs>
<clipPath id="clip0_67_918">
<rect width="26" height="26" fill="white" transform="translate(12 10)"/>
</clipPath>
</defs>
</svg>
