<svg width="37" height="35" viewBox="0 0 37 35" fill="none" xmlns="http://www.w3.org/2000/svg">
<rect x="0.475781" y="0.475781" width="35.9929" height="34.0485" rx="9.03984" stroke="#FF999A" stroke-width="0.951563"/>
<path d="M22.0157 10.1315C22.1252 10.2604 22.2121 10.4135 22.2713 10.582C22.3306 10.7505 22.3611 10.9312 22.3611 11.1137C22.3611 11.2961 22.3306 11.4768 22.2713 11.6453C22.2121 11.8138 22.1252 11.9669 22.0157 12.0958L17.4328 17.5012L22.0157 22.9066C22.2366 23.1671 22.3606 23.5204 22.3606 23.8888C22.3606 24.2572 22.2366 24.6105 22.0157 24.871C21.7949 25.1315 21.4953 25.2778 21.183 25.2778C20.8707 25.2778 20.5711 25.1315 20.3503 24.871L14.9288 18.4764C14.8193 18.3475 14.7324 18.1945 14.6731 18.0259C14.6139 17.8574 14.5833 17.6767 14.5833 17.4943C14.5833 17.3118 14.6139 17.1311 14.6731 16.9626C14.7324 16.7941 14.8193 16.641 14.9288 16.5121L20.3503 10.1176C20.7991 9.58816 21.5551 9.58816 22.0157 10.1315Z" fill="#FF999A"/>
</svg>
