<svg width="1292" height="124" viewBox="0 0 1292 124" fill="none" xmlns="http://www.w3.org/2000/svg">
<g opacity="0.5" filter="url(#filter0_d_16_2850)">
<rect x="6" y="3" width="305" height="112" rx="30" fill="#F5F5F5" shape-rendering="crispEdges"/>
<path fill-rule="evenodd" clip-rule="evenodd" d="M95.5039 40H110.5V45.7613H105.199C106.052 47.3274 106.537 49.1232 106.537 51.0323C106.537 57.1252 101.598 62.0645 95.5049 62.0645C89.412 62.0645 84.4727 57.1252 84.4727 51.0323C84.4727 44.9396 89.4114 40.0005 95.5039 40ZM95.5049 56.3032C98.416 56.3032 100.776 53.9433 100.776 51.0323C100.776 48.1212 98.416 45.7613 95.5049 45.7613H95.5039C92.5933 45.7618 90.2339 48.1215 90.2339 51.0323C90.2339 53.9433 92.5938 56.3032 95.5049 56.3032Z" fill="#0F0E0E"/>
<path opacity="0.7" d="M95.5044 77.9987C93.449 77.9987 91.5863 77.6142 89.9162 76.845C88.2462 76.108 86.9134 75.0664 85.9179 73.7204C84.9544 72.3745 84.4727 70.8362 84.4727 69.1056C84.4727 67.7596 84.6653 66.654 85.0507 65.7887C85.4361 64.9235 86.0142 64.0902 86.785 63.2891L91.5541 66.3656C91.233 66.654 90.9921 66.9905 90.8315 67.3751C90.671 67.7596 90.5907 68.2404 90.5907 68.8172C90.5907 69.8748 91.0242 70.708 91.8914 71.3169C92.7813 71.9512 93.9858 72.2717 95.5049 72.2782C97.024 72.2717 98.2285 71.9512 99.1185 71.3169C99.9856 70.708 100.419 69.8748 100.419 68.8172C100.419 68.2404 100.339 67.7596 100.178 67.3751C100.018 66.9905 99.7768 66.654 99.4557 66.3656L104.225 63.2891C104.996 64.0902 105.574 64.9235 105.959 65.7887C106.344 66.654 106.537 67.7596 106.537 69.1056C106.537 70.8362 106.055 72.3745 105.092 73.7204C104.096 75.0664 102.764 76.108 101.094 76.845C99.4236 77.6142 97.5598 77.9987 95.5044 77.9987Z" fill="#0F0E0E"/>
<path fill-rule="evenodd" clip-rule="evenodd" d="M172.038 67.3559C173.046 67.9719 174.194 68.2799 175.482 68.2799C176.415 68.2799 177.265 68.0932 178.03 67.7199C178.433 67.5136 178.797 67.2737 179.122 67.0002V67.9999H183.322V47.6719H179.038V55.2753C178.727 55.0304 178.382 54.8199 178.002 54.6439C177.255 54.2892 176.415 54.1119 175.482 54.1119C174.194 54.1119 173.046 54.4199 172.038 55.0359C171.049 55.6519 170.265 56.4919 169.686 57.5559C169.126 58.6199 168.846 59.8332 168.846 61.1959C168.846 62.5585 169.126 63.7719 169.686 64.8359C170.265 65.8999 171.049 66.7399 172.038 67.3559ZM177.834 64.0239C177.386 64.2852 176.854 64.4159 176.238 64.4159C175.659 64.4159 175.137 64.2759 174.67 63.9959C174.203 63.7159 173.839 63.3332 173.578 62.8479C173.317 62.3625 173.186 61.8119 173.186 61.1959C173.186 60.5799 173.317 60.0292 173.578 59.5439C173.858 59.0585 174.222 58.6759 174.67 58.3959C175.137 58.1159 175.669 57.9759 176.266 57.9759C176.863 57.9759 177.386 58.1159 177.834 58.3959C178.301 58.6759 178.655 59.0585 178.898 59.5439C179.159 60.0105 179.29 60.5612 179.29 61.1959C179.29 61.8305 179.159 62.3905 178.898 62.8759C178.637 63.3612 178.282 63.7439 177.834 64.0239Z" fill="#0F0E0E"/>
<path d="M122.772 67.5239C124.041 68.0465 125.395 68.3079 126.832 68.3079C128.792 68.3079 130.519 67.8972 132.012 67.0759C133.524 66.2545 134.7 65.0412 135.54 63.4359C136.399 61.8119 136.828 59.8145 136.828 57.4439V56.7999H126.44V60.5239L132.119 60.614C132.01 61.0254 131.863 61.406 131.676 61.7559C131.247 62.5772 130.621 63.2119 129.8 63.6599C128.997 64.0892 128.017 64.3039 126.86 64.3039C125.721 64.3039 124.713 64.0425 123.836 63.5199C122.959 62.9972 122.268 62.2692 121.764 61.3359C121.26 60.4025 121.008 59.3199 121.008 58.0879C121.008 56.8559 121.26 55.7825 121.764 54.8679C122.287 53.9345 123.005 53.2159 123.92 52.7119C124.835 52.1892 125.871 51.9279 127.028 51.9279C128.111 51.9279 129.081 52.1332 129.94 52.5439C130.799 52.9545 131.545 53.5705 132.18 54.3919L135.176 51.3959C134.261 50.3132 133.104 49.4639 131.704 48.8479C130.323 48.2319 128.783 47.9239 127.084 47.9239C125.609 47.9239 124.228 48.1852 122.94 48.7079C121.652 49.2119 120.523 49.9305 119.552 50.8639C118.6 51.7785 117.853 52.8519 117.312 54.0839C116.771 55.3159 116.5 56.6505 116.5 58.0879C116.5 59.5252 116.761 60.8692 117.284 62.1199C117.825 63.3519 118.563 64.4345 119.496 65.3679C120.429 66.2825 121.521 67.0012 122.772 67.5239Z" fill="#0F0E0E"/>
<path fill-rule="evenodd" clip-rule="evenodd" d="M141.284 67.3839C142.423 67.9999 143.692 68.3079 145.092 68.3079C146.511 68.3079 147.78 67.9999 148.9 67.3839C150.02 66.7492 150.907 65.8905 151.56 64.8079C152.214 63.7252 152.54 62.5119 152.54 61.1679C152.54 59.8239 152.214 58.6199 151.56 57.5559C150.907 56.4732 150.02 55.6239 148.9 55.0079C147.78 54.3919 146.511 54.0839 145.092 54.0839C143.674 54.0839 142.404 54.4012 141.284 55.0359C140.164 55.6519 139.278 56.4919 138.624 57.5559C137.971 58.6199 137.644 59.8239 137.644 61.1679C137.644 62.5119 137.971 63.7252 138.624 64.8079C139.278 65.8905 140.164 66.7492 141.284 67.3839ZM146.716 64.0239C146.25 64.2852 145.708 64.4159 145.092 64.4159C144.495 64.4159 143.963 64.2852 143.496 64.0239C143.03 63.7439 142.666 63.3612 142.404 62.8759C142.143 62.3719 142.012 61.8119 142.012 61.1959C142.012 60.5612 142.143 60.0012 142.404 59.5159C142.666 59.0305 143.03 58.6572 143.496 58.3959C143.963 58.1159 144.495 57.9759 145.092 57.9759C145.708 57.9759 146.24 58.1159 146.688 58.3959C147.155 58.6572 147.519 59.0305 147.78 59.5159C148.042 59.9825 148.172 60.5332 148.172 61.1679C148.172 61.8025 148.042 62.3719 147.78 62.8759C147.538 63.3612 147.183 63.7439 146.716 64.0239Z" fill="#0F0E0E"/>
<path fill-rule="evenodd" clip-rule="evenodd" d="M160.665 68.3079C159.265 68.3079 157.996 67.9999 156.857 67.3839C155.737 66.7492 154.851 65.8905 154.197 64.8079C153.544 63.7252 153.217 62.5119 153.217 61.1679C153.217 59.8239 153.544 58.6199 154.197 57.5559C154.851 56.4919 155.737 55.6519 156.857 55.0359C157.977 54.4012 159.247 54.0839 160.665 54.0839C162.084 54.0839 163.353 54.3919 164.473 55.0079C165.593 55.6239 166.48 56.4732 167.133 57.5559C167.787 58.6199 168.113 59.8239 168.113 61.1679C168.113 62.5119 167.787 63.7252 167.133 64.8079C166.48 65.8905 165.593 66.7492 164.473 67.3839C163.353 67.9999 162.084 68.3079 160.665 68.3079ZM160.665 64.4159C161.281 64.4159 161.823 64.2852 162.289 64.0239C162.756 63.7439 163.111 63.3612 163.353 62.8759C163.615 62.3719 163.745 61.8025 163.745 61.1679C163.745 60.5332 163.615 59.9825 163.353 59.5159C163.092 59.0305 162.728 58.6572 162.261 58.3959C161.813 58.1159 161.281 57.9759 160.665 57.9759C160.068 57.9759 159.536 58.1159 159.069 58.3959C158.603 58.6572 158.239 59.0305 157.977 59.5159C157.716 60.0012 157.585 60.5612 157.585 61.1959C157.585 61.8119 157.716 62.3719 157.977 62.8759C158.239 63.3612 158.603 63.7439 159.069 64.0239C159.536 64.2852 160.068 64.4159 160.665 64.4159Z" fill="#0F0E0E"/>
<path d="M195.266 60.1599L192.582 67.9999H189.11L184.406 54.3919H188.606L190.937 62.3018L193.506 54.3919H196.978L199.562 62.275L201.906 54.3919H206.106L201.402 67.9999H197.902L195.266 60.1599Z" fill="#0F0E0E"/>
<path fill-rule="evenodd" clip-rule="evenodd" d="M209.785 67.3839C210.943 67.9999 212.277 68.3079 213.789 68.3079C214.965 68.3079 216.029 68.1119 216.981 67.7199C217.952 67.3092 218.801 66.7025 219.529 65.8999L217.177 63.5479C216.748 64.0332 216.263 64.3972 215.721 64.6399C215.199 64.8639 214.601 64.9759 213.929 64.9759C213.486 64.9759 213.072 64.9196 212.685 64.8071L219.697 58.0319C219.156 56.7625 218.363 55.7919 217.317 55.1199C216.272 54.4292 215.003 54.0839 213.509 54.0839C212.091 54.0839 210.812 54.4012 209.673 55.0359C208.553 55.6519 207.667 56.4919 207.013 57.5559C206.379 58.6199 206.061 59.8239 206.061 61.1679C206.061 62.5119 206.388 63.7252 207.041 64.8079C207.713 65.8905 208.628 66.7492 209.785 67.3839ZM215.333 57.9485L210.348 62.7466C210.141 62.2347 210.037 61.6618 210.037 61.0279C210.037 60.3185 210.177 59.7025 210.457 59.1799C210.737 58.6385 211.139 58.2279 211.661 57.9479C212.184 57.6492 212.809 57.4999 213.537 57.4999C214.277 57.4999 214.875 57.6494 215.333 57.9485Z" fill="#0F0E0E"/>
<path d="M221.08 67.9999V47.6719H225.364V67.9999H221.08Z" fill="#0F0E0E"/>
<path d="M227.821 47.6719V67.9999H232.105V47.6719H227.821Z" fill="#0F0E0E"/>
</g>
<g opacity="0.5" filter="url(#filter1_d_16_2850)">
<rect x="331" y="3" width="305" height="112" rx="30" fill="#F5F5F5" shape-rendering="crispEdges"/>
<path d="M404.279 41.1817L408.969 58.6853V39.4415C409.341 39.3547 409.717 39.2783 410.096 39.2125V58.6871L415.371 39C415.752 39.0344 416.129 39.0794 416.502 39.1348L411.185 58.9805L421.755 40.6726C422.099 40.8275 422.438 40.9918 422.772 41.1653L412.162 59.5416L427.309 44.3951C427.582 44.6533 427.848 44.9192 428.106 45.1923L412.957 60.341L431.336 49.7302C431.509 50.0639 431.674 50.4031 431.828 50.7475L413.525 61.315L433.365 55.9988C433.421 56.3725 433.466 56.7496 433.5 57.1297L413.813 62.4048L433.287 62.4048C433.221 62.7844 433.145 63.1602 433.058 63.5321L413.81 63.5321L431.317 68.2231C431.137 68.5674 430.948 68.9058 430.749 69.238L413.523 64.6224L427.911 72.929C427.638 73.2091 427.358 73.4812 427.07 73.7451L412.961 65.5994L423.637 76.2752C423.299 76.4725 422.955 76.6602 422.605 76.838L412.163 66.3954L419.005 78.2462C418.63 78.3521 418.251 78.4474 417.868 78.5317L411.185 66.9573L414.407 78.9816C414.12 78.9938 413.831 79 413.541 79C413.442 79 413.343 78.9993 413.245 78.9978L410.096 67.2481V78.705C409.717 78.6393 409.341 78.5629 408.969 78.4761V67.25L406.193 77.61C405.839 77.4704 405.49 77.321 405.146 77.1622L407.88 66.9598L402.748 75.8482C402.43 75.6448 402.119 75.4326 401.813 75.2121L406.905 66.3935L399.775 73.5237C399.502 73.2654 399.236 72.9996 398.978 72.7266L406.105 65.5987L397.289 70.6886C397.069 70.3835 396.857 70.0719 396.653 69.7542L405.546 64.6201L395.338 67.3551C395.179 67.0113 395.03 66.6621 394.89 66.3081L405.25 63.5321L394.024 63.5321C393.937 63.1602 393.861 62.7844 393.795 62.4048L405.247 62.4048L393.502 59.2577C393.501 59.1582 393.5 59.0586 393.5 58.9588C393.5 58.6694 393.506 58.3814 393.518 58.0949L405.544 61.3173L393.968 54.6337C394.052 54.2505 394.147 53.8714 394.253 53.4968L406.109 60.3417L395.662 49.8947C395.84 49.5448 396.027 49.2008 396.225 48.8632L406.905 59.5434L398.756 45.429C399.02 45.1408 399.292 44.8604 399.572 44.588L407.88 58.978L403.264 41.7497C403.596 41.5509 403.935 41.3615 404.279 41.1817Z" fill="#0F0E0E"/>
<path d="M457.621 48.7747V52.8517H448.063V56.3347H456.5V60.1957H448.063V67.9987H443.5V51.2747C443.5 49.894 444.619 48.7747 446 48.7747H457.621Z" fill="#0F0E0E"/>
<path d="M470.633 66.3247C469.301 67.6567 467.528 68.3227 465.314 68.3227C463.1 68.3227 461.327 67.6567 459.995 66.3247C458.663 64.9927 457.997 63.2287 457.997 61.0327C457.997 58.8187 458.663 57.0457 459.995 55.7137C461.309 54.3997 463.082 53.7427 465.314 53.7427C467.546 53.7427 469.319 54.3997 470.633 55.7137C471.947 57.0277 472.604 58.8007 472.604 61.0327C472.604 63.2467 471.947 65.0107 470.633 66.3247ZM465.314 64.9477C466.286 64.9477 467.033 64.6147 467.555 63.9487C468.077 63.2827 468.338 62.3107 468.338 61.0327C468.338 59.7547 468.077 58.7827 467.555 58.1167C467.033 57.4507 466.286 57.1177 465.314 57.1177C464.324 57.1177 463.568 57.4507 463.046 58.1167C462.524 58.7827 462.263 59.7547 462.263 61.0327C462.263 62.3107 462.524 63.2827 463.046 63.9487C463.568 64.6147 464.324 64.9477 465.314 64.9477Z" fill="#0F0E0E"/>
<path d="M480.511 68.3227C478.333 68.3227 476.596 67.6567 475.3 66.3247C474.004 64.9927 473.356 63.2287 473.356 61.0327C473.356 58.8007 474.004 57.0277 475.3 55.7137C476.596 54.3997 478.333 53.7427 480.511 53.7427C482.419 53.7427 483.976 54.2467 485.182 55.2547C486.406 56.2447 487.117 57.5947 487.315 59.3047H483.13C482.896 57.8827 482.023 57.1717 480.511 57.1717C478.585 57.1717 477.622 58.4587 477.622 61.0327C477.622 63.5887 478.585 64.8667 480.511 64.8667C482.131 64.8667 483.031 64.0837 483.211 62.5177H487.396C487.27 64.2817 486.577 65.6947 485.317 66.7567C484.057 67.8007 482.455 68.3227 480.511 68.3227Z" fill="#0F0E0E"/>
<path d="M497.913 55.6867V54.0667H502.152V67.9987H498.048V66.1897C497.184 67.6117 495.852 68.3227 494.052 68.3227C492.126 68.3227 490.632 67.6747 489.57 66.3787C488.508 65.0827 487.977 63.3007 487.977 61.0327C487.977 58.7647 488.508 56.9827 489.57 55.6867C490.632 54.3907 492.126 53.7427 494.052 53.7427C495.744 53.7427 497.031 54.3907 497.913 55.6867ZM495.105 64.9477C497.031 64.9477 497.994 63.6427 497.994 61.0327C497.994 58.4227 497.031 57.1177 495.105 57.1177C493.197 57.1177 492.243 58.4587 492.243 61.1407C492.243 63.6787 493.197 64.9477 495.105 64.9477Z" fill="#0F0E0E"/>
<path d="M508.706 68.1067C507.068 68.1067 505.88 67.7917 505.142 67.1617C504.404 66.5317 504.035 65.5147 504.035 64.1107V48.7747H508.247V63.6517C508.247 64.1197 508.346 64.4437 508.544 64.6237C508.742 64.7857 509.093 64.8667 509.597 64.8667H510.542V67.9987C510.038 68.0707 509.426 68.1067 508.706 68.1067Z" fill="#0F0E0E"/>
<path d="M511.728 51.2747C511.728 49.894 512.847 48.7747 514.228 48.7747H520.476C522.69 48.7747 524.427 49.3597 525.687 50.5297C526.947 51.6817 527.577 53.2567 527.577 55.2547C527.577 57.2527 526.947 58.8367 525.687 60.0067C524.427 61.1587 522.69 61.7347 520.476 61.7347H516.291V67.9987H511.728V51.2747ZM516.291 57.8737H520.179C521.079 57.8737 521.772 57.6487 522.258 57.1987C522.762 56.7487 523.014 56.1007 523.014 55.2547C523.014 54.4087 522.762 53.7607 522.258 53.3107C521.754 52.8607 521.061 52.6357 520.179 52.6357H516.291V57.8737Z" fill="#0F0E0E"/>
<path d="M540.284 66.3247C538.952 67.6567 537.179 68.3227 534.965 68.3227C532.751 68.3227 530.978 67.6567 529.646 66.3247C528.314 64.9927 527.648 63.2287 527.648 61.0327C527.648 58.8187 528.314 57.0457 529.646 55.7137C530.96 54.3997 532.733 53.7427 534.965 53.7427C537.197 53.7427 538.97 54.3997 540.284 55.7137C541.598 57.0277 542.255 58.8007 542.255 61.0327C542.255 63.2467 541.598 65.0107 540.284 66.3247ZM534.965 64.9477C535.937 64.9477 536.684 64.6147 537.206 63.9487C537.728 63.2827 537.989 62.3107 537.989 61.0327C537.989 59.7547 537.728 58.7827 537.206 58.1167C536.684 57.4507 535.937 57.1177 534.965 57.1177C533.975 57.1177 533.219 57.4507 532.697 58.1167C532.175 58.7827 531.914 59.7547 531.914 61.0327C531.914 62.3107 532.175 63.2827 532.697 63.9487C533.219 64.6147 533.975 64.9477 534.965 64.9477Z" fill="#0F0E0E"/>
<path d="M545.681 52.6087C545.069 52.6087 544.547 52.4017 544.115 51.9877C543.701 51.5557 543.494 51.0427 543.494 50.4487C543.494 49.8367 543.701 49.3237 544.115 48.9097C544.547 48.4777 545.069 48.2617 545.681 48.2617C546.275 48.2617 546.779 48.4777 547.193 48.9097C547.625 49.3237 547.841 49.8367 547.841 50.4487C547.841 51.0427 547.625 51.5557 547.193 51.9877C546.779 52.4017 546.275 52.6087 545.681 52.6087ZM547.787 67.9987H543.575V54.0667H547.787V67.9987Z" fill="#0F0E0E"/>
<path d="M558.184 53.7427C559.66 53.7427 560.83 54.1927 561.694 55.0927C562.576 55.9747 563.017 57.2347 563.017 58.8727V67.9987H558.805V59.7097C558.805 58.1257 558.058 57.3337 556.564 57.3337C555.808 57.3337 555.178 57.5857 554.674 58.0897C554.17 58.5937 553.918 59.3047 553.918 60.2227V67.9987H549.706V54.0667H553.81V56.0377C554.89 54.5077 556.348 53.7427 558.184 53.7427Z" fill="#0F0E0E"/>
<path d="M572.531 54.0667V57.1447H569.858V63.6517C569.858 64.1197 569.975 64.4437 570.209 64.6237C570.443 64.7857 570.857 64.8667 571.451 64.8667H572.531V67.9987C572.027 68.0707 571.379 68.1067 570.587 68.1067C568.841 68.1067 567.581 67.8007 566.807 67.1887C566.033 66.5587 565.646 65.5327 565.646 64.1107V57.1447H563.567V54.0667H565.646V49.9357H569.858V54.0667H572.531Z" fill="#0F0E0E"/>
</g>
<g opacity="0.5" filter="url(#filter2_d_16_2850)">
<rect x="656" y="3" width="305" height="112" rx="30" fill="#F5F5F5" shape-rendering="crispEdges"/>
<path fill-rule="evenodd" clip-rule="evenodd" d="M731.5 44C731.5 40.134 728.366 37 724.5 37H715.5C711.082 37 707.5 40.5817 707.5 45V73C707.5 77.4183 711.082 81 715.5 81H724.5C728.366 81 731.5 77.866 731.5 74C741.207 74 749.342 67.6029 751.5 59C749.342 50.3971 741.207 44 731.5 44ZM731.5 53L731.5 44C721.793 44 713.658 50.3971 711.5 59C713.658 67.6029 721.793 74 731.5 74V65C734.814 65 737.5 62.3137 737.5 59C737.5 55.6863 734.814 53 731.5 53ZM731.5 53V65C728.186 65 725.5 62.3137 725.5 59C725.5 55.6863 728.186 53 731.5 53Z" fill="#0F0E0E"/>
<path d="M767.654 68.2702C764.99 68.2702 762.965 67.6852 761.579 66.5152C760.193 65.3272 759.5 63.7792 759.5 61.8712H763.982C764.018 62.8972 764.369 63.6532 765.035 64.1392C765.701 64.6072 766.61 64.8412 767.762 64.8412C770.03 64.8412 771.164 64.0582 771.164 62.4922C771.164 61.8442 770.957 61.3582 770.543 61.0342C770.129 60.7102 769.562 60.4672 768.842 60.3052C768.122 60.1252 767.294 59.9452 766.358 59.7652C764.36 59.3692 762.785 58.7392 761.633 57.8752C760.499 57.0112 759.932 55.7332 759.932 54.0412C759.932 52.7272 760.247 51.6292 760.877 50.7472C761.525 49.8652 762.425 49.1992 763.577 48.7492C764.747 48.2992 766.097 48.0742 767.627 48.0742C770.129 48.0742 772.046 48.5872 773.378 49.6132C774.728 50.6392 775.412 52.0882 775.43 53.9602H770.975C770.957 53.1502 770.66 52.5292 770.084 52.0972C769.508 51.6472 768.689 51.4222 767.627 51.4222C766.691 51.4222 765.953 51.6112 765.413 51.9892C764.891 52.3492 764.63 52.8532 764.63 53.5012C764.63 54.0772 764.801 54.5182 765.143 54.8242C765.503 55.1302 766.016 55.3642 766.682 55.5262C767.348 55.6702 768.149 55.8232 769.085 55.9852C770.363 56.2012 771.515 56.5252 772.541 56.9572C773.567 57.3712 774.377 57.9832 774.971 58.7932C775.565 59.6032 775.862 60.7102 775.862 62.1142C775.862 63.5002 775.52 64.6522 774.836 65.5702C774.152 66.4882 773.189 67.1722 771.947 67.6222C770.723 68.0542 769.292 68.2702 767.654 68.2702Z" fill="#0F0E0E"/>
<path d="M784.355 68.2702C781.997 68.2702 780.242 67.5952 779.09 66.2452C777.956 64.8952 777.389 63.0952 777.389 60.8452V60.7642C777.389 58.2262 778.019 56.3362 779.279 55.0942C780.557 53.8522 782.258 53.2312 784.382 53.2312C786.416 53.2312 788.018 53.7442 789.188 54.7702C790.358 55.7962 790.979 57.1642 791.051 58.8742H787.001C786.929 58.1182 786.659 57.5512 786.191 57.1732C785.723 56.7952 785.12 56.6062 784.382 56.6062C783.5 56.6062 782.807 56.8672 782.303 57.3892C781.817 57.9112 781.574 58.6132 781.574 59.4952V62.0872C781.574 62.9692 781.817 63.6622 782.303 64.1662C782.789 64.6702 783.473 64.9222 784.355 64.9222C785.183 64.9222 785.813 64.7062 786.245 64.2742C786.695 63.8422 786.947 63.2932 787.001 62.6272H791.078C791.06 63.7612 790.763 64.7512 790.187 65.5972C789.629 66.4432 788.846 67.1002 787.838 67.5682C786.83 68.0362 785.669 68.2702 784.355 68.2702Z" fill="#0F0E0E"/>
<path d="M793.271 68.0002V56.7142C793.271 55.7242 793.568 54.9412 794.162 54.3652C794.756 53.7892 795.53 53.5012 796.484 53.5012H802.397V56.8492H797.429V68.0002H793.271Z" fill="#0F0E0E"/>
<path d="M810.544 68.2702C808.942 68.2702 807.601 67.9642 806.521 67.3522C805.458 66.7222 804.667 65.8492 804.145 64.7332C803.623 63.5992 803.361 62.2852 803.361 60.7912V60.5482C803.361 58.9822 803.65 57.6592 804.226 56.5792C804.802 55.4812 805.603 54.6532 806.629 54.0952C807.673 53.5192 808.87 53.2312 810.22 53.2312C811.696 53.2312 812.947 53.5102 813.973 54.0682C815.017 54.6262 815.809 55.4092 816.349 56.4172C816.889 57.4252 817.159 58.6042 817.159 59.9542V61.7902H807.574V62.5462C807.574 63.3202 807.835 63.9412 808.357 64.4092C808.897 64.8772 809.581 65.1112 810.409 65.1112C811.146 65.1112 811.75 64.9492 812.218 64.6252C812.704 64.3012 812.992 63.8692 813.082 63.3292H816.997C816.943 64.3192 816.637 65.1832 816.079 65.9212C815.521 66.6592 814.764 67.2352 813.811 67.6492C812.857 68.0632 811.768 68.2702 810.544 68.2702ZM807.574 59.0902V59.2252H813.082V59.0902C813.082 58.1182 812.83 57.4162 812.326 56.9842C811.821 56.5342 811.165 56.3092 810.354 56.3092C809.491 56.3092 808.807 56.5522 808.303 57.0382C807.817 57.5062 807.574 58.1902 807.574 59.0902Z" fill="#0F0E0E"/>
<path d="M825.666 68.2702C824.064 68.2702 822.723 67.9642 821.643 67.3522C820.581 66.7222 819.789 65.8492 819.267 64.7332C818.745 63.5992 818.484 62.2852 818.484 60.7912V60.5482C818.484 58.9822 818.772 57.6592 819.348 56.5792C819.924 55.4812 820.725 54.6532 821.751 54.0952C822.795 53.5192 823.992 53.2312 825.342 53.2312C826.818 53.2312 828.069 53.5102 829.095 54.0682C830.139 54.6262 830.931 55.4092 831.471 56.4172C832.011 57.4252 832.281 58.6042 832.281 59.9542V61.7902H822.696V62.5462C822.696 63.3202 822.957 63.9412 823.479 64.4092C824.019 64.8772 824.703 65.1112 825.531 65.1112C826.269 65.1112 826.872 64.9492 827.34 64.6252C827.826 64.3012 828.114 63.8692 828.204 63.3292H832.119C832.065 64.3192 831.759 65.1832 831.201 65.9212C830.643 66.6592 829.887 67.2352 828.933 67.6492C827.979 68.0632 826.89 68.2702 825.666 68.2702ZM822.696 59.0902V59.2252H828.204V59.0902C828.204 58.1182 827.952 57.4162 827.448 56.9842C826.944 56.5342 826.287 56.3092 825.477 56.3092C824.613 56.3092 823.929 56.5522 823.425 57.0382C822.939 57.5062 822.696 58.1902 822.696 59.0902Z" fill="#0F0E0E"/>
<path d="M834.551 68.0002V53.5012H838.412L838.709 55.8772H838.952C839.258 55.0852 839.789 54.4462 840.545 53.9602C841.301 53.4742 842.201 53.2312 843.245 53.2312C844.793 53.2312 846.017 53.7082 846.917 54.6622C847.817 55.5982 848.267 57.0832 848.267 59.1172V68.0002H844.136V59.6572C844.136 58.4872 843.902 57.6862 843.434 57.2542C842.966 56.8222 842.336 56.6062 841.544 56.6062C840.608 56.6062 839.897 56.9122 839.411 57.5242C838.943 58.1362 838.709 58.9462 838.709 59.9542V68.0002H834.551Z" fill="#0F0E0E"/>
<path d="M863.297 51.6652V48.3172H867.428V51.6652H863.297ZM863.297 56.8492H857.249V64.7602H860.651V68.0002H856.304C855.152 68.0002 854.324 67.7032 853.82 67.1092C853.334 66.5152 853.091 65.7412 853.091 64.7872V56.8492H849.959V53.5012H853.091V48.9652H857.249V53.5012H867.428V68.0002H863.297V56.8492Z" fill="#0F0E0E"/>
<path d="M870.701 68.0002V53.5012H874.589L874.859 55.7962H875.102C875.408 55.0042 875.939 54.3832 876.695 53.9332C877.451 53.4832 878.324 53.2582 879.314 53.2582C880.466 53.2582 881.429 53.5282 882.203 54.0682C882.977 54.6082 883.499 55.3372 883.769 56.2552H883.958C884.264 55.3012 884.822 54.5632 885.632 54.0412C886.442 53.5192 887.396 53.2582 888.494 53.2582C890.006 53.2582 891.203 53.7082 892.085 54.6082C892.985 55.4902 893.435 56.8942 893.435 58.8202V68.0002H889.277V59.5762C889.277 58.4962 889.061 57.7402 888.629 57.3082C888.197 56.8582 887.603 56.6332 886.847 56.6332C885.965 56.6332 885.29 56.9302 884.822 57.5242C884.372 58.1002 884.147 58.8832 884.147 59.8732V68.0002H879.989V59.5762C879.989 58.4962 879.773 57.7402 879.341 57.3082C878.927 56.8582 878.324 56.6332 877.532 56.6332C876.65 56.6332 875.984 56.9302 875.534 57.5242C875.084 58.1002 874.859 58.8832 874.859 59.8732V68.0002H870.701Z" fill="#0F0E0E"/>
<path d="M902.765 68.2702C901.163 68.2702 899.822 67.9642 898.742 67.3522C897.68 66.7222 896.888 65.8492 896.366 64.7332C895.844 63.5992 895.583 62.2852 895.583 60.7912V60.5482C895.583 58.9822 895.871 57.6592 896.447 56.5792C897.023 55.4812 897.824 54.6532 898.85 54.0952C899.894 53.5192 901.091 53.2312 902.441 53.2312C903.917 53.2312 905.168 53.5102 906.194 54.0682C907.238 54.6262 908.03 55.4092 908.57 56.4172C909.11 57.4252 909.38 58.6042 909.38 59.9542V61.7902H899.795V62.5462C899.795 63.3202 900.056 63.9412 900.578 64.4092C901.118 64.8772 901.802 65.1112 902.63 65.1112C903.368 65.1112 903.971 64.9492 904.439 64.6252C904.925 64.3012 905.213 63.8692 905.303 63.3292H909.218C909.164 64.3192 908.858 65.1832 908.3 65.9212C907.742 66.6592 906.986 67.2352 906.032 67.6492C905.078 68.0632 903.989 68.2702 902.765 68.2702ZM899.795 59.0902V59.2252H905.303V59.0902C905.303 58.1182 905.051 57.4162 904.547 56.9842C904.043 56.5342 903.386 56.3092 902.576 56.3092C901.712 56.3092 901.028 56.5522 900.524 57.0382C900.038 57.5062 899.795 58.1902 899.795 59.0902Z" fill="#0F0E0E"/>
</g>
<g opacity="0.5" filter="url(#filter3_d_16_2850)">
<rect x="981" y="3" width="305" height="112" rx="30" fill="#F5F5F5" shape-rendering="crispEdges"/>
<path d="M1060.35 40.5224C1062.77 39.5174 1065.37 39 1068 39V49C1066.69 49 1065.39 49.2586 1064.17 49.7613C1062.96 50.2638 1061.86 51.0003 1060.93 51.9289C1060 52.8575 1059.26 53.9599 1058.76 55.1731C1058.26 56.3864 1058 57.6867 1058 59H1048C1048 56.3736 1048.52 53.7728 1049.52 51.3463C1050.53 48.9198 1052 46.7151 1053.86 44.8578C1055.72 43.0007 1057.92 41.5275 1060.35 40.5224Z" fill="#0F0E0E"/>
<path d="M1048 59C1048 61.6264 1048.52 64.2272 1049.52 66.6537C1050.53 69.0802 1052 71.2849 1053.86 73.1422C1055.72 74.9993 1057.92 76.4725 1060.35 77.4776C1062.77 78.4826 1065.37 79 1068 79C1070.63 79 1073.23 78.4826 1075.65 77.4776C1078.08 76.4725 1080.28 74.9993 1082.14 73.1422C1084 71.2849 1085.47 69.0802 1086.48 66.6537C1087.48 64.2272 1088 61.6264 1088 59H1078C1078 60.3133 1077.74 61.6136 1077.24 62.8269C1076.74 64.0401 1076 65.1425 1075.07 66.0711C1074.14 66.9997 1073.04 67.7362 1071.83 68.2387C1070.61 68.7414 1069.31 69 1068 69C1066.69 69 1065.39 68.7414 1064.17 68.2387C1062.96 67.7362 1061.86 66.9997 1060.93 66.0711C1060 65.1425 1059.26 64.0401 1058.76 62.8269C1058.26 61.6136 1058 60.3133 1058 59H1048Z" fill="#0F0E0E"/>
<path d="M1068 52.6367C1064.49 52.6367 1061.64 55.4858 1061.64 59.0004H1074.36C1074.36 55.4858 1071.51 52.6367 1068 52.6367Z" fill="#0F0E0E"/>
<path d="M1068 65.3633C1064.49 65.3633 1061.64 62.5142 1061.64 58.9996H1074.36C1074.36 62.5142 1071.51 65.3633 1068 65.3633Z" fill="#0F0E0E"/>
<path d="M1103.89 67.5143C1102.48 66.9203 1101.4 66.0293 1100.65 64.8683C1099.89 63.7343 1099.51 62.3573 1099.51 60.7643H1104.24C1104.26 61.9523 1104.67 62.8973 1105.48 63.5453C1106.26 64.2203 1107.37 64.5443 1108.77 64.5443C1110.12 64.5443 1111.2 64.3013 1111.96 63.7883C1112.71 63.2753 1113.09 62.5733 1113.09 61.6823C1113.09 61.0613 1112.88 60.5753 1112.44 60.2243C1112.01 59.9003 1111.5 59.6573 1110.85 59.4953C1110.2 59.3603 1109.31 59.1983 1108.12 59.0363C1106.45 58.8203 1105.07 58.5773 1104.02 58.2533C1102.94 57.9563 1102.02 57.3893 1101.27 56.5253C1100.51 55.6613 1100.13 54.4463 1100.13 52.8263C1100.13 51.5033 1100.46 50.3423 1101.16 49.3433C1101.83 48.3443 1102.81 47.5883 1104.07 47.0483C1105.32 46.5083 1106.8 46.2383 1108.53 46.2383C1110.2 46.2383 1111.72 46.5353 1113.04 47.1023C1114.33 47.6963 1115.36 48.5063 1116.12 49.5593C1116.85 50.6123 1117.22 51.8543 1117.22 53.2583H1112.58C1112.47 52.2863 1112.07 51.5033 1111.36 50.9633C1110.66 50.4233 1109.69 50.1263 1108.45 50.1263C1107.15 50.1263 1106.18 50.3693 1105.51 50.8283C1104.8 51.2873 1104.48 51.9353 1104.48 52.7723C1104.48 53.4203 1104.7 53.9333 1105.13 54.2573C1105.56 54.6083 1106.1 54.8513 1106.75 54.9863C1107.4 55.1483 1108.29 55.2833 1109.47 55.4183C1111.15 55.6343 1112.53 55.9043 1113.58 56.2013C1114.63 56.4983 1115.55 57.0653 1116.31 57.9293C1117.06 58.7933 1117.47 60.0083 1117.47 61.6283C1117.47 62.9783 1117.12 64.1393 1116.41 65.1653C1115.71 66.1913 1114.69 67.0013 1113.36 67.5683C1112.04 68.1623 1110.47 68.4323 1108.66 68.4323C1106.86 68.4323 1105.26 68.1353 1103.89 67.5143Z" fill="#0F0E0E"/>
<path d="M1122.42 67.4873C1121.28 66.8393 1120.42 65.9483 1119.8 64.8143C1119.18 63.6803 1118.88 62.4113 1118.88 60.9533C1118.88 59.5223 1119.18 58.2533 1119.8 57.1193C1120.42 55.9853 1121.28 55.1213 1122.42 54.4733C1123.52 53.8523 1124.79 53.5283 1126.22 53.5283C1127.47 53.5283 1128.57 53.8523 1129.57 54.4463C1130.57 55.0403 1131.35 55.9043 1131.95 57.0113C1132.51 58.1453 1132.81 59.4143 1132.81 60.8723V62.1683H1122.96C1123.04 63.1133 1123.36 63.8423 1123.9 64.3823C1124.44 64.9223 1125.23 65.1653 1126.25 65.1653C1126.93 65.1653 1127.49 65.0033 1127.92 64.6793C1128.36 64.3553 1128.63 63.9503 1128.74 63.4373H1132.73C1132.51 64.9493 1131.79 66.1643 1130.6 67.0823C1129.41 68.0003 1127.95 68.4323 1126.22 68.4323C1124.79 68.4323 1123.52 68.1353 1122.42 67.4873ZM1128.79 59.7113C1128.73 58.9013 1128.49 58.2533 1128.01 57.7403C1127.52 57.2543 1126.87 56.9843 1126.06 56.9843C1125.14 56.9843 1124.44 57.2273 1123.93 57.7133C1123.42 58.1993 1123.09 58.8743 1122.98 59.7113H1128.79Z" fill="#0F0E0E"/>
<path d="M1136.58 72.6443C1135.39 71.8343 1134.74 70.6193 1134.6 68.9993H1138.63C1138.68 69.6203 1139.01 70.0793 1139.55 70.3763C1140.09 70.6733 1140.79 70.8083 1141.68 70.8083C1142.76 70.8083 1143.57 70.5113 1144.11 69.8903C1144.65 69.2963 1144.89 68.3513 1144.89 67.0553V66.0563C1143.89 67.4063 1142.33 68.0813 1140.19 68.0813C1138.98 68.0813 1137.93 67.8113 1137.01 67.2173C1136.09 66.6503 1135.39 65.8403 1134.9 64.7603C1134.39 63.6803 1134.15 62.4383 1134.15 61.0073C1134.15 59.5493 1134.39 58.2533 1134.9 57.1193C1135.39 55.9853 1136.12 55.1213 1137.03 54.4733C1137.95 53.8523 1139.01 53.5283 1140.19 53.5283C1142.33 53.5283 1143.89 54.2843 1144.89 55.7423V54.2002H1148.91V67.0553C1148.91 71.5913 1146.43 73.8323 1141.49 73.8323C1139.38 73.8323 1137.74 73.4543 1136.58 72.6443ZM1143.97 63.7073C1144.59 62.9783 1144.92 62.0333 1144.92 60.8453C1144.92 59.6843 1144.59 58.7123 1143.97 57.9563C1143.33 57.2003 1142.52 56.8223 1141.54 56.8223C1140.54 56.8223 1139.73 57.2003 1139.09 57.9563C1138.44 58.7123 1138.14 59.6843 1138.14 60.8453C1138.14 62.0063 1138.44 62.9513 1139.09 63.6803C1139.71 64.4363 1140.52 64.7873 1141.54 64.7873C1142.52 64.7873 1143.33 64.4363 1143.97 63.7073Z" fill="#0F0E0E"/>
<path d="M1151.1 54.2002H1155.1V55.9853C1155.58 55.2293 1156.21 54.6083 1157.02 54.1763C1157.83 53.7443 1158.77 53.5283 1159.85 53.5283C1162.06 53.5283 1163.58 54.4193 1164.36 56.2013C1165.63 54.4193 1167.44 53.5283 1169.81 53.5283C1173.3 53.5283 1175.05 55.7153 1175.05 60.0623V68.0003H1170.97V60.2783C1170.97 59.2523 1170.73 58.4693 1170.25 57.8753C1169.76 57.2813 1169.08 56.9843 1168.22 56.9843C1167.25 56.9843 1166.47 57.3353 1165.9 58.0373C1165.33 58.7393 1165.06 59.6573 1165.06 60.8183V68.0003H1161.01V60.2783C1161.01 59.2523 1160.77 58.4693 1160.28 57.8753C1159.8 57.2813 1159.12 56.9843 1158.26 56.9843C1157.29 56.9843 1156.5 57.3353 1155.94 58.0373C1155.37 58.7393 1155.1 59.6573 1155.1 60.8183V68.0003H1151.1V54.2002Z" fill="#0F0E0E"/>
<path d="M1180.07 67.4873C1178.93 66.8393 1178.07 65.9483 1177.45 64.8143C1176.83 63.6803 1176.53 62.4113 1176.53 60.9533C1176.53 59.5223 1176.83 58.2533 1177.45 57.1193C1178.07 55.9853 1178.93 55.1213 1180.07 54.4733C1181.17 53.8523 1182.44 53.5283 1183.87 53.5283C1185.12 53.5283 1186.22 53.8523 1187.22 54.4463C1188.22 55.0403 1189 55.9043 1189.6 57.0113C1190.16 58.1453 1190.46 59.4143 1190.46 60.8723V62.1683H1180.61C1180.69 63.1133 1181.01 63.8423 1181.55 64.3823C1182.09 64.9223 1182.87 65.1653 1183.9 65.1653C1184.58 65.1653 1185.14 65.0033 1185.57 64.6793C1186.01 64.3553 1186.28 63.9503 1186.38 63.4373H1190.38C1190.16 64.9493 1189.44 66.1643 1188.25 67.0823C1187.06 68.0003 1185.6 68.4323 1183.87 68.4323C1182.44 68.4323 1181.17 68.1353 1180.07 67.4873ZM1186.44 59.7113C1186.38 58.9013 1186.14 58.2533 1185.66 57.7403C1185.17 57.2543 1184.52 56.9843 1183.71 56.9843C1182.79 56.9843 1182.09 57.2273 1181.58 57.7133C1181.07 58.1993 1180.74 58.8743 1180.63 59.7113H1186.44Z" fill="#0F0E0E"/>
<path d="M1192.15 54.2002H1196.14V55.9853C1196.63 55.2293 1197.25 54.6083 1198.06 54.1763C1198.87 53.7443 1199.81 53.5283 1200.89 53.5283C1204.35 53.5283 1206.1 55.7153 1206.1 60.0623V68.0003H1202.05V60.2783C1202.05 59.2523 1201.81 58.4693 1201.33 57.8753C1200.84 57.2813 1200.16 56.9843 1199.3 56.9843C1198.33 56.9843 1197.55 57.3353 1196.98 58.0373C1196.41 58.7393 1196.14 59.6573 1196.14 60.8183V68.0003H1192.15V54.2002Z" fill="#0F0E0E"/>
<path d="M1214.06 68.1083C1212.98 68.1083 1212.15 68.0003 1211.55 67.7843C1210.93 67.5683 1210.47 67.1903 1210.2 66.6233C1209.91 66.0563 1209.77 65.2463 1209.8 64.2203V57.6053H1206.8V53.9603H1209.8V50.1803H1213.79V53.9603H1217.47V57.6053H1213.79V62.1683C1213.79 62.8703 1213.82 63.3563 1213.88 63.6533C1213.93 63.9773 1214.09 64.1933 1214.31 64.3283C1214.52 64.4633 1214.87 64.5173 1215.39 64.5173C1215.77 64.5173 1216.85 64.4903 1217.47 64.4363V67.9733C1216.26 68.0813 1214.74 68.1083 1214.06 68.1083Z" fill="#0F0E0E"/>
</g>
<defs>
<filter id="filter0_d_16_2850" x="0" y="0" width="317" height="124" filterUnits="userSpaceOnUse" color-interpolation-filters="sRGB">
<feFlood flood-opacity="0" result="BackgroundImageFix"/>
<feColorMatrix in="SourceAlpha" type="matrix" values="0 0 0 0 0 0 0 0 0 0 0 0 0 0 0 0 0 0 127 0" result="hardAlpha"/>
<feOffset dy="3"/>
<feGaussianBlur stdDeviation="3"/>
<feComposite in2="hardAlpha" operator="out"/>
<feColorMatrix type="matrix" values="0 0 0 0 0 0 0 0 0 0 0 0 0 0 0 0 0 0 0.08 0"/>
<feBlend mode="normal" in2="BackgroundImageFix" result="effect1_dropShadow_16_2850"/>
<feBlend mode="normal" in="SourceGraphic" in2="effect1_dropShadow_16_2850" result="shape"/>
</filter>
<filter id="filter1_d_16_2850" x="325" y="0" width="317" height="124" filterUnits="userSpaceOnUse" color-interpolation-filters="sRGB">
<feFlood flood-opacity="0" result="BackgroundImageFix"/>
<feColorMatrix in="SourceAlpha" type="matrix" values="0 0 0 0 0 0 0 0 0 0 0 0 0 0 0 0 0 0 127 0" result="hardAlpha"/>
<feOffset dy="3"/>
<feGaussianBlur stdDeviation="3"/>
<feComposite in2="hardAlpha" operator="out"/>
<feColorMatrix type="matrix" values="0 0 0 0 0 0 0 0 0 0 0 0 0 0 0 0 0 0 0.08 0"/>
<feBlend mode="normal" in2="BackgroundImageFix" result="effect1_dropShadow_16_2850"/>
<feBlend mode="normal" in="SourceGraphic" in2="effect1_dropShadow_16_2850" result="shape"/>
</filter>
<filter id="filter2_d_16_2850" x="650" y="0" width="317" height="124" filterUnits="userSpaceOnUse" color-interpolation-filters="sRGB">
<feFlood flood-opacity="0" result="BackgroundImageFix"/>
<feColorMatrix in="SourceAlpha" type="matrix" values="0 0 0 0 0 0 0 0 0 0 0 0 0 0 0 0 0 0 127 0" result="hardAlpha"/>
<feOffset dy="3"/>
<feGaussianBlur stdDeviation="3"/>
<feComposite in2="hardAlpha" operator="out"/>
<feColorMatrix type="matrix" values="0 0 0 0 0 0 0 0 0 0 0 0 0 0 0 0 0 0 0.08 0"/>
<feBlend mode="normal" in2="BackgroundImageFix" result="effect1_dropShadow_16_2850"/>
<feBlend mode="normal" in="SourceGraphic" in2="effect1_dropShadow_16_2850" result="shape"/>
</filter>
<filter id="filter3_d_16_2850" x="975" y="0" width="317" height="124" filterUnits="userSpaceOnUse" color-interpolation-filters="sRGB">
<feFlood flood-opacity="0" result="BackgroundImageFix"/>
<feColorMatrix in="SourceAlpha" type="matrix" values="0 0 0 0 0 0 0 0 0 0 0 0 0 0 0 0 0 0 127 0" result="hardAlpha"/>
<feOffset dy="3"/>
<feGaussianBlur stdDeviation="3"/>
<feComposite in2="hardAlpha" operator="out"/>
<feColorMatrix type="matrix" values="0 0 0 0 0 0 0 0 0 0 0 0 0 0 0 0 0 0 0.08 0"/>
<feBlend mode="normal" in2="BackgroundImageFix" result="effect1_dropShadow_16_2850"/>
<feBlend mode="normal" in="SourceGraphic" in2="effect1_dropShadow_16_2850" result="shape"/>
</filter>
</defs>
</svg>
