<svg width="37" height="35" viewBox="0 0 37 35" fill="none" xmlns="http://www.w3.org/2000/svg">
<rect width="36.9445" height="35" rx="9.51562" fill="#FF999A"/>
<path d="M14.9288 10.1315C14.8193 10.2604 14.7324 10.4135 14.6731 10.582C14.6139 10.7505 14.5833 10.9312 14.5833 11.1137C14.5833 11.2961 14.6139 11.4768 14.6731 11.6453C14.7324 11.8138 14.8193 11.9669 14.9288 12.0958L19.5117 17.5012L14.9288 22.9066C14.7079 23.1671 14.5838 23.5204 14.5838 23.8888C14.5838 24.2572 14.7079 24.6105 14.9288 24.871C15.1496 25.1315 15.4492 25.2778 15.7615 25.2778C16.0738 25.2778 16.3733 25.1315 16.5942 24.871L22.0157 18.4764C22.1252 18.3475 22.2121 18.1945 22.2713 18.0259C22.3306 17.8574 22.3611 17.6767 22.3611 17.4943C22.3611 17.3118 22.3306 17.1311 22.2713 16.9626C22.2121 16.7941 22.1252 16.641 22.0157 16.5121L16.5942 10.1176C16.1454 9.58816 15.3894 9.58816 14.9288 10.1315Z" fill="#FEFEFE"/>
</svg>
