<svg width="50" height="46" viewBox="0 0 50 46" fill="none" xmlns="http://www.w3.org/2000/svg">
<rect width="50" height="46" rx="10" fill="#FFEBEB"/>
<path d="M17.5644 23.8277L20.8341 19.8439C21.1678 19.4149 21.3346 19.2004 21.422 18.9598C21.4994 18.7469 21.5314 18.5202 21.516 18.2943C21.4986 18.0389 21.3977 17.7866 21.1958 17.282L20.4259 15.3572C20.1272 14.6104 19.9779 14.2371 19.7202 13.9923C19.4932 13.7767 19.2087 13.6312 18.9009 13.5734C18.5517 13.5078 18.1615 13.6054 17.3813 13.8004L15.25 14.3333C15.25 25.1667 22.833 32.75 33.6667 32.75L34.1992 30.6184C34.3943 29.8381 34.4918 29.448 34.4263 29.0987C34.3685 28.7911 34.2231 28.5065 34.0074 28.2795C33.7627 28.0218 33.3892 27.8725 32.6425 27.5738L30.9249 26.8867C30.3492 26.6565 30.0613 26.5413 29.7744 26.5325C29.5206 26.5247 29.2688 26.5764 29.0387 26.6834C28.7783 26.8047 28.5592 27.0238 28.1208 27.4622L24.813 30.7711M26.083 17.5833C27.1412 17.7898 28.1136 18.3073 28.8759 19.0696C29.6383 19.8319 30.1558 20.8044 30.3622 21.8625M26.083 13.25C28.2814 13.4942 30.3314 14.4787 31.8965 16.0418C33.4615 17.6048 34.4485 19.6536 34.6955 21.8517" stroke="#FF999A" stroke-width="2.5" stroke-linecap="round" stroke-linejoin="round"/>
</svg>
