<svg width="143" height="67" viewBox="0 0 143 67" fill="none" xmlns="http://www.w3.org/2000/svg">
<g clip-path="url(#clip0_1150_21782)">
<mask id="mask0_1150_21782" style="mask-type:luminance" maskUnits="userSpaceOnUse" x="0" y="-15" width="143" height="102">
<path d="M0 -15H143V87H0V-15Z" fill="white"/>
</mask>
<g mask="url(#mask0_1150_21782)">
<path d="M20.9396 54.816C20.977 54.816 20.9847 54.7937 20.977 54.7713L20.3023 52.9191C20.2947 52.8891 20.2873 52.8517 20.2649 52.8517C20.2422 52.8517 20.2271 52.8891 20.2198 52.9191L19.5283 54.7631C19.5209 54.7931 19.5283 54.8155 19.5584 54.8155L20.9396 54.816ZM19.408 55.1903C19.3706 55.1903 19.3555 55.2053 19.3405 55.2504L18.9347 56.3222C18.8596 56.5095 18.8221 56.6894 18.8218 56.7795C18.8218 56.9141 18.8893 57.0119 19.122 57.0119L19.2346 57.0122C19.3249 57.0122 19.3473 57.0269 19.3473 57.0719C19.3473 57.132 19.3022 57.1467 19.2196 57.1467C18.9796 57.1467 18.6567 57.1241 18.424 57.1241C18.3415 57.1241 17.9284 57.1462 17.5382 57.1462C17.4403 57.1462 17.3955 57.1312 17.3955 57.0711C17.3955 57.0263 17.4256 57.0113 17.4855 57.0113C17.553 57.0113 17.6582 57.0039 17.7181 56.9963C18.0637 56.9515 18.2064 56.6968 18.3565 56.322L20.2427 51.6147C20.3327 51.3973 20.3778 51.3149 20.453 51.3149C20.5205 51.3149 20.5656 51.3823 20.6405 51.5549C20.8207 51.9671 22.0206 55.0266 22.5007 56.1661C22.7858 56.8407 23.0034 56.9459 23.1609 56.9833C23.2735 57.0062 23.3862 57.0136 23.4761 57.0136C23.5363 57.0136 23.5737 57.0212 23.5737 57.0734C23.5737 57.1334 23.5062 57.1484 23.2284 57.1484C22.9583 57.1482 22.4102 57.1479 21.8095 57.1329C21.6744 57.1252 21.5845 57.1252 21.5845 57.0728C21.5845 57.0277 21.6143 57.013 21.6895 57.0054C21.7423 56.9903 21.7947 56.9229 21.7573 56.8328L21.1572 55.2433C21.1422 55.2059 21.1197 55.1909 21.082 55.1909L19.408 55.1903Z" fill="#C4B097"/>
</g>
<mask id="mask1_1150_21782" style="mask-type:luminance" maskUnits="userSpaceOnUse" x="0" y="-15" width="143" height="102">
<path d="M0 -15H143V87H0V-15Z" fill="white"/>
</mask>
<g mask="url(#mask1_1150_21782)">
<path d="M25.3006 54.9751C25.3003 55.9348 25.3 56.4521 25.4575 56.587C25.5851 56.6995 25.7804 56.7519 26.366 56.7522C26.7638 56.7522 27.0566 56.7451 27.2444 56.5428C27.3343 56.445 27.4246 56.2354 27.4396 56.0929C27.4473 56.0254 27.4623 55.9807 27.5225 55.9807C27.5749 55.9807 27.5823 56.0181 27.5823 56.1079C27.5823 56.1903 27.5295 56.7525 27.4694 56.9701C27.4243 57.135 27.3865 57.1726 26.9964 57.1724C26.4559 57.1721 26.0655 57.1568 25.7276 57.1491C25.3897 57.1341 25.1195 57.1267 24.8117 57.1265C24.7291 57.1265 24.564 57.1265 24.3838 57.1338C24.2113 57.1338 24.0161 57.1486 23.8657 57.1486C23.7684 57.1486 23.7159 57.1262 23.7159 57.0735C23.7159 57.0361 23.7457 57.0137 23.836 57.0137C23.9486 57.0137 24.0385 56.9987 24.1061 56.9837C24.2564 56.9539 24.2939 56.789 24.324 56.5717C24.3617 56.2566 24.362 55.6645 24.3623 54.9748L24.3628 53.6556C24.3631 52.5158 24.3631 52.3061 24.3481 52.0661C24.3333 51.8114 24.2732 51.6913 24.0255 51.6386C23.9656 51.6236 23.8757 51.6162 23.7778 51.6159C23.6952 51.6159 23.6504 51.6012 23.6504 51.5485C23.6504 51.4961 23.7029 51.481 23.8155 51.481C24.1682 51.481 24.6412 51.504 24.844 51.504C25.0242 51.5043 25.5721 51.4816 25.8649 51.4819C25.9702 51.4819 26.0227 51.4972 26.0227 51.5493C26.0227 51.602 25.9775 51.6168 25.8873 51.6168C25.8048 51.6168 25.6847 51.6241 25.5948 51.6391C25.3919 51.6768 25.3318 51.804 25.3167 52.0664C25.3017 52.3064 25.3014 52.5161 25.3011 53.6559L25.3006 54.9751Z" fill="#C4B097"/>
</g>
<mask id="mask2_1150_21782" style="mask-type:luminance" maskUnits="userSpaceOnUse" x="0" y="-15" width="143" height="102">
<path d="M0 -15H143V87H0V-15Z" fill="white"/>
</mask>
<g mask="url(#mask2_1150_21782)">
<path d="M29.8416 54.9766C29.8413 55.9362 29.841 56.4536 29.9988 56.5885C30.1262 56.7009 30.3214 56.7534 30.907 56.7536C31.3048 56.7536 31.5976 56.7466 31.7854 56.5443C31.8756 56.4465 31.9656 56.2368 31.9809 56.0943C31.9883 56.0269 32.0033 55.9821 32.0635 55.9821C32.116 55.9821 32.1233 56.0195 32.1233 56.1093C32.1233 56.1918 32.0706 56.7539 32.0104 56.9715C31.9653 57.1364 31.9278 57.1741 31.5374 57.1738C30.9969 57.1735 30.6065 57.1582 30.2686 57.1506C29.931 57.1356 29.6606 57.1282 29.3527 57.1279C29.2701 57.1279 29.105 57.1279 28.9248 57.1353C28.7523 57.1353 28.5571 57.15 28.4068 57.15C28.3094 57.15 28.2569 57.1276 28.2569 57.0749C28.2569 57.0375 28.2867 57.0152 28.377 57.0152C28.4896 57.0152 28.5795 57.0001 28.6471 56.9851C28.7975 56.9554 28.8349 56.7905 28.865 56.5732C28.9027 56.2581 28.903 55.6659 28.9033 54.9763L28.9039 53.6571C28.9041 52.5172 28.9041 52.3076 28.8894 52.0676C28.8743 51.8129 28.8145 51.6927 28.5665 51.64C28.5066 51.625 28.4167 51.6177 28.3188 51.6174C28.2362 51.6174 28.1914 51.6026 28.1914 51.5499C28.1914 51.4975 28.2439 51.4825 28.3565 51.4825C28.7095 51.4825 29.1825 51.5055 29.3851 51.5055C29.5652 51.5057 30.1131 51.4831 30.4059 51.4834C30.5112 51.4834 30.5637 51.4987 30.5637 51.5508C30.5637 51.6035 30.5186 51.6182 30.4283 51.6182C30.3458 51.6182 30.2258 51.6256 30.1355 51.6406C29.9329 51.6783 29.8728 51.8055 29.8578 52.0679C29.8427 52.3079 29.8424 52.5175 29.8421 53.6574L29.8416 54.9766Z" fill="#C4B097"/>
</g>
<mask id="mask3_1150_21782" style="mask-type:luminance" maskUnits="userSpaceOnUse" x="0" y="-15" width="143" height="102">
<path d="M0 -15H143V87H0V-15Z" fill="white"/>
</mask>
<g mask="url(#mask3_1150_21782)">
<path d="M37.5278 54.8219C37.5652 54.8219 37.5729 54.7995 37.5652 54.7771L36.8905 52.925C36.8828 52.8949 36.8752 52.8575 36.8528 52.8575C36.8303 52.8575 36.8153 52.8949 36.8079 52.925L36.1162 54.7689C36.1088 54.7989 36.1162 54.8213 36.1463 54.8213L37.5278 54.8219ZM35.9962 55.1962C35.9584 55.1962 35.9434 55.2112 35.9287 55.2562L35.5226 56.3281C35.4477 56.5154 35.41 56.6953 35.41 56.7854C35.41 56.92 35.4772 57.0177 35.7102 57.0177L35.8228 57.018C35.9128 57.018 35.9355 57.0327 35.9355 57.0778C35.9355 57.1379 35.8903 57.1526 35.8078 57.1526C35.5675 57.1526 35.2446 57.1299 35.0119 57.1299C34.9294 57.1299 34.5165 57.152 34.1261 57.152C34.0285 57.152 33.9834 57.137 33.9834 57.0769C33.9834 57.0322 34.0135 57.0172 34.0736 57.0172C34.1412 57.0172 34.2464 57.0098 34.3063 57.0021C34.6516 56.9574 34.7943 56.7027 34.9447 56.3278L36.8306 51.6205C36.9209 51.4032 36.966 51.3207 37.0412 51.3207C37.1087 51.3207 37.1535 51.3882 37.2287 51.5607C37.4086 51.973 38.6085 55.0324 39.0886 56.172C39.3737 56.8466 39.5913 56.9517 39.7491 56.9891C39.8617 57.0121 39.9744 57.0194 40.0643 57.0194C40.1242 57.0194 40.1619 57.0271 40.1619 57.0792C40.1619 57.1393 40.0944 57.1543 39.8166 57.1543C39.5462 57.154 38.998 57.1537 38.3977 57.1387C38.2626 57.1311 38.1724 57.1311 38.1724 57.0786C38.1724 57.0336 38.2025 57.0189 38.2777 57.0112C38.3301 56.9962 38.3826 56.9288 38.3452 56.8387L37.7454 55.2492C37.7303 55.2118 37.7076 55.1967 37.6702 55.1967L35.9962 55.1962Z" fill="#C4B097"/>
</g>
<mask id="mask4_1150_21782" style="mask-type:luminance" maskUnits="userSpaceOnUse" x="0" y="-15" width="143" height="102">
<path d="M0 -15H143V87H0V-15Z" fill="white"/>
</mask>
<g mask="url(#mask4_1150_21782)">
<path d="M41.8355 54.254C41.8355 54.3364 41.8505 54.3665 41.903 54.3891C42.0605 54.4413 42.2857 54.4642 42.4736 54.4642C42.7738 54.4642 42.8714 54.4342 43.0064 54.337C43.232 54.1721 43.4496 53.8273 43.4499 53.2125C43.4502 52.1483 42.7448 51.8406 42.3016 51.8403C42.1141 51.8403 41.979 51.8476 41.9041 51.87C41.8514 51.885 41.8363 51.9151 41.8363 51.9749L41.8355 54.254ZM40.9499 53.6615C40.9502 52.522 40.9502 52.312 40.9355 52.0723C40.9204 51.8173 40.8606 51.6972 40.6126 51.6445C40.5527 51.6298 40.425 51.6221 40.3201 51.6221C40.2375 51.6221 40.1924 51.6071 40.1924 51.5544C40.1924 51.5023 40.2449 51.487 40.3575 51.487C40.7556 51.4872 41.2286 51.5102 41.386 51.5102C41.6414 51.5102 42.212 51.4878 42.4446 51.4878C42.9176 51.4881 43.4204 51.5334 43.8258 51.8108C44.0358 51.9533 44.336 52.3358 44.336 52.8379C44.3357 53.3927 44.1028 53.9027 43.3443 54.5169C44.012 55.357 44.5298 56.0243 44.9727 56.4892C45.3929 56.9241 45.7004 56.9768 45.8131 56.9992C45.8956 57.0145 45.9635 57.0219 46.0233 57.0219C46.0835 57.0219 46.1135 57.0445 46.1135 57.0817C46.1135 57.1417 46.0608 57.1567 45.9708 57.1567L45.2575 57.1565C44.8373 57.1562 44.6495 57.1188 44.4543 57.0139C44.1317 56.8411 43.8465 56.4886 43.4263 55.9115C43.1262 55.499 42.7811 54.989 42.6835 54.8765C42.6461 54.8314 42.601 54.8241 42.5485 54.8241L41.8953 54.8088C41.8576 54.8088 41.8352 54.8238 41.8352 54.8688V54.9737C41.8349 55.6709 41.8346 56.2631 41.8721 56.5779C41.8945 56.7955 41.9396 56.9604 42.1646 56.9904C42.2772 57.0054 42.4424 57.0207 42.5326 57.0207C42.5927 57.0207 42.6228 57.0431 42.6228 57.0805C42.6225 57.1329 42.57 57.1553 42.4724 57.1553C42.0372 57.1553 41.4817 57.1327 41.369 57.1327C41.2263 57.1324 40.7533 57.1548 40.4531 57.1545C40.3555 57.1545 40.303 57.1321 40.303 57.0797C40.303 57.0423 40.3328 57.0199 40.4231 57.0199C40.5357 57.0199 40.6259 57.0046 40.6932 56.9899C40.8435 56.9598 40.881 56.7949 40.9111 56.5776C40.9488 56.2628 40.9491 55.6707 40.9494 54.9807L40.9499 53.6615Z" fill="#C4B097"/>
</g>
<mask id="mask5_1150_21782" style="mask-type:luminance" maskUnits="userSpaceOnUse" x="0" y="-15" width="143" height="102">
<path d="M0 -15H143V87H0V-15Z" fill="white"/>
</mask>
<g mask="url(#mask5_1150_21782)">
<path d="M50.8429 54.4673C50.8435 52.788 49.8757 51.7456 48.6443 51.7453C47.7812 51.7448 46.7975 52.2242 46.7966 54.0908C46.7961 55.65 47.6589 56.8876 49.1005 56.8881C49.626 56.8881 50.8421 56.6337 50.8429 54.4673ZM45.7607 54.3228C45.761 53.041 46.6099 51.3844 48.8622 51.3852C50.7314 51.3861 51.8947 52.4735 51.8939 54.1902C51.8933 55.9069 50.6917 57.2635 48.785 57.2627C46.6304 57.2621 45.7602 55.6497 45.7607 54.3228Z" fill="#C4B097"/>
</g>
<mask id="mask6_1150_21782" style="mask-type:luminance" maskUnits="userSpaceOnUse" x="0" y="-15" width="143" height="102">
<path d="M0 -15H143V87H0V-15Z" fill="white"/>
</mask>
<g mask="url(#mask6_1150_21782)">
<path d="M53.2143 53.6664C53.2149 52.5269 53.2149 52.3169 53.1998 52.0772C53.1851 51.8222 53.1249 51.7021 52.8772 51.6494C52.8171 51.6347 52.6897 51.627 52.5844 51.627C52.5019 51.627 52.4567 51.612 52.457 51.5593C52.457 51.5072 52.5095 51.4919 52.6222 51.4919C53.02 51.4921 53.4929 51.5151 53.7179 51.5151C53.8984 51.5151 54.3714 51.4927 54.6415 51.4927C54.7541 51.4927 54.8066 51.508 54.8066 51.5604C54.8066 51.6128 54.7615 51.6279 54.6863 51.6279C54.6037 51.6279 54.5589 51.6352 54.4687 51.65C54.2661 51.6876 54.2059 51.8149 54.1909 52.0775C54.1759 52.3175 54.1756 52.5272 54.1753 53.6667L54.1747 54.7162C54.1745 55.8031 54.3918 56.2606 54.7595 56.5607C55.0974 56.8381 55.4427 56.8684 55.6981 56.8684C56.0283 56.8687 56.4335 56.7636 56.734 56.4641C57.1471 56.0515 57.1698 55.3769 57.1701 54.6048L57.1704 53.6679C57.1709 52.5283 57.1709 52.3186 57.1562 52.0786C57.1411 51.8236 57.0813 51.7038 56.8336 51.6511C56.7734 51.6361 56.6457 51.6284 56.5632 51.6284C56.4806 51.6284 56.4355 51.6134 56.4355 51.561C56.4355 51.5086 56.4883 51.4933 56.5933 51.4936C56.9763 51.4936 57.449 51.5165 57.4566 51.5165C57.5466 51.5165 58.0198 51.4941 58.3124 51.4941C58.4176 51.4941 58.4701 51.5094 58.4701 51.5616C58.4701 51.6143 58.425 51.6293 58.3351 51.6293C58.2525 51.629 58.2074 51.6366 58.1172 51.6514C57.9146 51.6891 57.8544 51.8163 57.8394 52.0789C57.8241 52.3186 57.8241 52.5286 57.8238 53.6681L57.8235 54.4703C57.8229 55.3024 57.7401 56.187 57.1094 56.7264C56.5762 57.1837 56.0354 57.2659 55.5477 57.2656C55.1496 57.2656 54.429 57.2427 53.8811 56.7477C53.4986 56.4029 53.2135 55.8478 53.214 54.7607L53.2143 53.6664Z" fill="#C4B097"/>
</g>
<mask id="mask7_1150_21782" style="mask-type:luminance" maskUnits="userSpaceOnUse" x="0" y="-15" width="143" height="102">
<path d="M0 -15H143V87H0V-15Z" fill="white"/>
</mask>
<g mask="url(#mask7_1150_21782)">
<path d="M60.3517 56.143C60.3667 56.7278 60.464 56.9224 60.6141 56.9751C60.7418 57.0202 60.8845 57.0278 61.0045 57.0278C61.0871 57.0278 61.1322 57.0428 61.1322 57.0876C61.1322 57.1477 61.0644 57.1627 60.9594 57.1627C60.4714 57.1624 60.1712 57.1397 60.0285 57.1397C59.961 57.1397 59.6083 57.1621 59.2179 57.1618C59.12 57.1618 59.0527 57.1545 59.0527 57.0867C59.0527 57.042 59.0976 57.027 59.1728 57.0272C59.2704 57.0272 59.4054 57.0196 59.5107 56.9896C59.7059 56.9298 59.736 56.7125 59.7436 56.0602L59.8128 51.6221C59.8131 51.4722 59.8355 51.3674 59.9105 51.3674C59.993 51.3674 60.0608 51.4648 60.1882 51.6C60.2782 51.6972 61.419 52.9198 62.5145 54.0072C63.025 54.5169 64.0379 55.597 64.1656 55.7168H64.203L64.1292 52.3508C64.1219 51.8935 64.0543 51.7513 63.8742 51.6762C63.7615 51.6312 63.5816 51.6312 63.4764 51.6309C63.3864 51.6309 63.3564 51.6085 63.3564 51.5634C63.3564 51.5034 63.4389 51.496 63.5516 51.496C63.942 51.496 64.3023 51.519 64.4598 51.519C64.5423 51.519 64.8278 51.4966 65.1955 51.4966C65.2931 51.4966 65.3683 51.5042 65.3683 51.5643C65.368 51.6093 65.3232 51.6317 65.2329 51.6317C65.158 51.6317 65.0979 51.6317 65.0079 51.6541C64.7977 51.7139 64.7376 51.8714 64.7299 52.291L64.6453 57.0216C64.6453 57.1865 64.6153 57.2539 64.5477 57.2539C64.4652 57.2539 64.3752 57.1712 64.2927 57.0887C63.82 56.6391 62.8593 55.6565 62.0787 54.8841C61.2607 54.0743 60.428 53.1368 60.2929 52.9943H60.2702L60.3517 56.143Z" fill="#C4B097"/>
</g>
<mask id="mask8_1150_21782" style="mask-type:luminance" maskUnits="userSpaceOnUse" x="0" y="-15" width="143" height="102">
<path d="M0 -15H143V87H0V-15Z" fill="white"/>
</mask>
<g mask="url(#mask8_1150_21782)">
<path d="M67.9778 54.4962C67.9775 55.2909 67.9849 55.8681 67.9923 56.0106C67.9996 56.1979 68.0147 56.4979 68.0745 56.5804C68.1722 56.7229 68.465 56.8804 69.058 56.8807C69.8237 56.881 70.3342 56.7311 70.785 56.3415C71.2654 55.9293 71.416 55.247 71.4163 54.4749C71.4166 53.5229 71.0188 52.9081 70.6962 52.6004C70.0056 51.9405 69.1499 51.8504 68.5646 51.8501C68.4142 51.8501 68.1364 51.8725 68.0765 51.9023C68.0087 51.9323 67.9863 51.9697 67.9863 52.0522C67.9786 52.3072 67.9784 52.9594 67.9781 53.5516L67.9778 54.4962ZM67.0398 53.6714C67.0404 52.5316 67.0404 52.3219 67.0253 52.0819C67.0103 51.8272 66.9504 51.7071 66.7027 51.6544C66.6426 51.6393 66.5152 51.632 66.4099 51.632C66.3273 51.6317 66.2822 51.617 66.2822 51.5643C66.2825 51.5121 66.335 51.4968 66.4476 51.4968C66.8454 51.4968 67.3184 51.5198 67.5287 51.5198C67.7613 51.5201 68.2343 51.4974 68.6846 51.4977C69.6229 51.498 70.8767 51.4985 71.6947 52.3536C72.07 52.7435 72.4224 53.366 72.4221 54.2579C72.4219 55.2025 72.0235 55.9222 71.603 56.3492C71.2577 56.7014 70.4766 57.2335 69.0878 57.2329C68.8176 57.2326 68.5098 57.2102 68.2244 57.1876C67.9392 57.1649 67.6765 57.1422 67.4889 57.1422C67.4064 57.1422 67.2412 57.1422 67.0608 57.1496C66.8883 57.1496 66.6931 57.1643 66.543 57.1643C66.4454 57.1643 66.3929 57.142 66.3929 57.0893C66.3929 57.0519 66.423 57.0295 66.5129 57.0295C66.6255 57.0298 66.7158 57.0145 66.7833 56.9994C66.9334 56.9697 66.9711 56.8048 67.0012 56.5875C67.0389 56.2724 67.0389 55.6802 67.0392 54.9906L67.0398 53.6714Z" fill="#C4B097"/>
</g>
<mask id="mask9_1150_21782" style="mask-type:luminance" maskUnits="userSpaceOnUse" x="0" y="-15" width="143" height="102">
<path d="M0 -15H143V87H0V-15Z" fill="white"/>
</mask>
<g mask="url(#mask9_1150_21782)">
<path d="M78.1476 54.8375C78.1853 54.8375 78.1927 54.8151 78.1853 54.7928L77.5103 52.9406C77.5027 52.9106 77.4953 52.8732 77.4729 52.8732C77.4505 52.8732 77.4351 52.9106 77.4278 52.9406L76.7363 54.7845C76.7289 54.8146 76.7363 54.837 76.7664 54.837L78.1476 54.8375ZM76.616 55.2118C76.5786 55.2118 76.5632 55.2268 76.5485 55.2719L76.1428 56.3437C76.0676 56.531 76.0301 56.7109 76.0298 56.801C76.0298 56.9356 76.0974 57.0334 76.3303 57.0334L76.4427 57.0336C76.5329 57.0336 76.5553 57.0484 76.5553 57.0934C76.5553 57.1535 76.5102 57.1682 76.4276 57.1682C76.1876 57.1682 75.8647 57.1456 75.632 57.1456C75.5495 57.1456 75.1366 57.1677 74.7462 57.1677C74.6486 57.1677 74.6035 57.1526 74.6035 57.0926C74.6035 57.0478 74.6333 57.0328 74.6935 57.0328C74.761 57.0328 74.8662 57.0254 74.9264 57.0178C75.2714 56.973 75.4144 56.7183 75.5645 56.3434L77.4507 51.6361C77.541 51.4188 77.5858 51.3364 77.661 51.3364C77.7285 51.3364 77.7736 51.4038 77.8485 51.5764C78.0287 51.9886 79.2286 55.048 79.7087 56.1876C79.9935 56.8622 80.2114 56.9673 80.3689 57.0047C80.4816 57.0277 80.5942 57.0351 80.6841 57.0351C80.7443 57.0351 80.7817 57.0427 80.7817 57.0948C80.7817 57.1549 80.7142 57.1699 80.4364 57.1699C80.166 57.1696 79.6182 57.1694 79.0175 57.1543C78.8825 57.1467 78.7922 57.1467 78.7922 57.0943C78.7922 57.0492 78.8226 57.0345 78.8978 57.0268C78.95 57.0118 79.0028 56.9444 78.965 56.8543L78.3652 55.2648C78.3502 55.2274 78.3275 55.2124 78.2903 55.2124L76.616 55.2118Z" fill="#C4B097"/>
</g>
<mask id="mask10_1150_21782" style="mask-type:luminance" maskUnits="userSpaceOnUse" x="0" y="-15" width="143" height="102">
<path d="M0 -15H143V87H0V-15Z" fill="white"/>
</mask>
<g mask="url(#mask10_1150_21782)">
<path d="M81.9991 51.5331C82.0215 51.4056 82.0666 51.3382 82.1265 51.3382C82.1866 51.3382 82.2318 51.3759 82.3294 51.5705L84.3773 55.7995L86.4207 51.5198C86.4809 51.3997 86.5183 51.3399 86.5859 51.3399C86.6537 51.3399 86.6988 51.4147 86.7209 51.5722L87.4024 56.2056C87.4697 56.6779 87.5449 56.8952 87.7699 56.9629C87.9878 57.0306 88.1379 57.038 88.2355 57.038C88.303 57.038 88.3555 57.0456 88.3555 57.0904C88.3555 57.1505 88.2653 57.1729 88.1603 57.1729C87.9725 57.1726 86.9368 57.1499 86.6364 57.1272C86.4639 57.1122 86.4185 57.0896 86.4188 57.0448C86.4188 57.0071 86.4485 56.9847 86.5013 56.9623C86.5464 56.9473 86.5688 56.8499 86.5391 56.6402L86.0896 53.3411H86.0598L84.4219 56.7442C84.2491 57.0964 84.2113 57.1638 84.1441 57.1638C84.0766 57.1638 84.0014 57.0136 83.8814 56.7887C83.7012 56.4438 83.1088 55.2969 83.0188 55.0867C82.9513 54.9294 82.501 53.9845 82.2386 53.4221H82.2085L81.8172 56.4059C81.8019 56.5407 81.7942 56.6382 81.7942 56.7581C81.7942 56.9006 81.8921 56.968 82.0195 56.998C82.1546 57.0284 82.2596 57.0357 82.3347 57.0357C82.3949 57.0357 82.4471 57.0507 82.4471 57.0881C82.4471 57.1556 82.3799 57.1706 82.2672 57.1706C81.9517 57.1703 81.6141 57.1479 81.4787 57.1479C81.3363 57.1479 80.976 57.17 80.7356 57.17C80.6605 57.17 80.6006 57.155 80.6006 57.0876C80.6006 57.0502 80.6457 57.0352 80.7209 57.0352C80.7808 57.0352 80.8332 57.0352 80.9462 57.0125C81.1561 56.9677 81.2163 56.6753 81.254 56.4206L81.9991 51.5331Z" fill="#C4B097"/>
</g>
<mask id="mask11_1150_21782" style="mask-type:luminance" maskUnits="userSpaceOnUse" x="0" y="-15" width="143" height="102">
<path d="M0 -15H143V87H0V-15Z" fill="white"/>
</mask>
<g mask="url(#mask11_1150_21782)">
<path d="M89.5493 53.68C89.5498 52.5402 89.5498 52.3305 89.5348 52.0908C89.52 51.8358 89.4599 51.7157 89.2122 51.663C89.152 51.6482 89.0247 51.6406 88.9194 51.6406C88.8368 51.6406 88.792 51.6256 88.792 51.5729C88.792 51.5207 88.8448 51.5054 88.9571 51.5054C89.16 51.5057 89.3776 51.5131 89.5654 51.5134C89.7604 51.521 89.9329 51.5287 90.0381 51.5287C90.2782 51.5287 91.7723 51.5292 91.915 51.5219C92.0577 51.5066 92.1777 51.4918 92.2379 51.4768C92.2751 51.4695 92.3205 51.4471 92.3576 51.4471C92.3954 51.4471 92.403 51.4771 92.403 51.5142C92.403 51.5669 92.3656 51.6567 92.3426 52.0018C92.3352 52.0769 92.3199 52.4067 92.3049 52.4965C92.2975 52.5339 92.2822 52.579 92.23 52.579C92.1772 52.579 92.1624 52.5413 92.1624 52.4739C92.1624 52.4215 92.1548 52.294 92.1173 52.2041C92.0648 52.069 91.9899 51.9789 91.6145 51.9341C91.4869 51.9191 90.6987 51.9035 90.5486 51.9035C90.5108 51.9035 90.4958 51.9262 90.4958 51.9783L90.4952 53.8752C90.4952 53.9277 90.5026 53.9577 90.5477 53.9577C90.7128 53.9577 91.5762 53.958 91.749 53.9432C91.9289 53.9282 92.0418 53.9056 92.1091 53.8308C92.1619 53.771 92.1916 53.7333 92.2294 53.7333C92.2595 53.7333 92.2819 53.7483 92.2819 53.7934C92.2819 53.8384 92.2518 53.9583 92.2217 54.3408C92.2141 54.4906 92.1914 54.7904 92.1914 54.8428C92.1914 54.9029 92.1914 54.9853 92.1238 54.9853C92.0713 54.9853 92.0563 54.9553 92.0563 54.9179C92.0489 54.8428 92.0489 54.7454 92.0262 54.6479C91.9891 54.498 91.8841 54.3852 91.606 54.3555C91.4633 54.3405 90.7202 54.3325 90.5401 54.3325C90.5023 54.3325 90.4949 54.3623 90.4949 54.4076L90.4947 54.9995C90.4947 55.2545 90.487 55.9441 90.4944 56.1617C90.5091 56.6788 90.6291 56.7913 91.3949 56.7916C91.5901 56.7916 91.9054 56.7919 92.1006 56.7021C92.2961 56.612 92.386 56.4547 92.4385 56.1473C92.4538 56.0648 92.4689 56.0348 92.5213 56.0351C92.5812 56.0351 92.5812 56.0952 92.5812 56.17C92.5812 56.3425 92.5211 56.8519 92.4833 57.0021C92.4305 57.197 92.3633 57.197 92.0779 57.1968C91.515 57.1968 91.1021 57.1812 90.7792 57.1738C90.4564 57.1588 90.2237 57.1511 89.9984 57.1511C89.9158 57.1509 89.7507 57.1509 89.5705 57.1582C89.3978 57.1582 89.2028 57.1732 89.0525 57.173C88.9549 57.173 88.9024 57.1506 88.9024 57.0982C88.9024 57.0608 88.9327 57.0384 89.0227 57.0384C89.135 57.0384 89.2252 57.0231 89.2928 57.0083C89.4429 56.9783 89.4809 56.8134 89.5107 56.5961C89.5484 56.2813 89.5484 55.6891 89.5487 54.9992L89.5493 53.68Z" fill="#C4B097"/>
</g>
<mask id="mask12_1150_21782" style="mask-type:luminance" maskUnits="userSpaceOnUse" x="0" y="-15" width="143" height="102">
<path d="M0 -15H143V87H0V-15Z" fill="white"/>
</mask>
<g mask="url(#mask12_1150_21782)">
<path d="M95.178 54.274C95.178 54.3565 95.1933 54.3865 95.2455 54.4092C95.4032 54.4613 95.6285 54.4842 95.8161 54.4842C96.1162 54.4842 96.2139 54.4542 96.3492 54.357C96.5745 54.1921 96.7924 53.8473 96.7927 53.2325C96.7929 52.1683 96.0873 51.8606 95.6444 51.8603C95.4569 51.8603 95.3215 51.8677 95.2463 51.89C95.1941 51.9051 95.1788 51.9351 95.1788 51.9949L95.178 54.274ZM94.2924 53.6816C94.2927 52.542 94.293 52.332 94.278 52.0923C94.2632 51.8373 94.2031 51.7172 93.9554 51.6645C93.8952 51.6498 93.7678 51.6421 93.6626 51.6421C93.58 51.6421 93.5352 51.6271 93.5352 51.5744C93.5352 51.5223 93.5876 51.507 93.7003 51.507C94.0981 51.5073 94.5711 51.5302 94.7288 51.5302C94.9839 51.5302 95.5545 51.5078 95.7871 51.5078C96.2601 51.5081 96.7632 51.5534 97.1683 51.8308C97.3786 51.9733 97.6788 52.3558 97.6785 52.8579C97.6785 53.4127 97.4455 53.9227 96.6868 54.5369C97.3547 55.377 97.8725 56.0443 98.3152 56.5092C98.7354 56.9441 99.0432 56.9968 99.1559 57.0192C99.2384 57.0345 99.3059 57.0419 99.3661 57.0419C99.426 57.0419 99.456 57.0646 99.456 57.1017C99.456 57.1617 99.4035 57.1768 99.3133 57.1768L98.6003 57.1765C98.1798 57.1762 97.9923 57.1388 97.7971 57.034C97.4742 56.8611 97.1893 56.5087 96.7688 55.9315C96.4689 55.519 96.1236 55.009 96.026 54.8965C95.9889 54.8514 95.9435 54.8441 95.891 54.8441L95.2378 54.8288C95.2004 54.8288 95.1777 54.8438 95.1777 54.8888V54.9937C95.1774 55.691 95.1771 56.2831 95.2148 56.5979C95.237 56.8155 95.2821 56.9804 95.5074 57.0104C95.62 57.0255 95.7851 57.0408 95.8751 57.0408C95.9352 57.0408 95.9653 57.0631 95.9653 57.1005C95.965 57.153 95.9128 57.1753 95.8149 57.1753C95.3797 57.1753 94.8241 57.1527 94.7118 57.1527C94.5691 57.1524 94.0961 57.1748 93.7956 57.1745C93.698 57.1745 93.6455 57.1521 93.6455 57.0997C93.6455 57.0623 93.6756 57.0399 93.7658 57.0399C93.8782 57.0399 93.9684 57.0246 94.0359 57.0099C94.186 56.9798 94.2238 56.8149 94.2538 56.5976C94.2913 56.2828 94.2916 55.6907 94.2919 55.0008L94.2924 53.6816Z" fill="#C4B097"/>
</g>
<mask id="mask13_1150_21782" style="mask-type:luminance" maskUnits="userSpaceOnUse" x="0" y="-15" width="143" height="102">
<path d="M0 -15H143V87H0V-15Z" fill="white"/>
</mask>
<g mask="url(#mask13_1150_21782)">
<path d="M99.9595 53.684C99.96 52.5441 99.96 52.3344 99.945 52.0947C99.9303 51.8397 99.8553 51.7122 99.6902 51.6746C99.6077 51.6522 99.51 51.6445 99.4198 51.6445C99.3449 51.6445 99.2998 51.6295 99.2998 51.5694C99.2998 51.5247 99.36 51.5094 99.48 51.5094C99.7651 51.5097 100.238 51.5326 100.456 51.5326C100.644 51.5326 101.086 51.5102 101.372 51.5102C101.469 51.5102 101.529 51.5255 101.529 51.5703C101.529 51.6304 101.484 51.6454 101.409 51.6454C101.334 51.6454 101.274 51.6527 101.184 51.6675C100.981 51.7052 100.921 51.8324 100.906 52.095C100.891 52.335 100.891 52.5447 100.89 53.6842L100.89 55.0034C100.89 55.7308 100.89 56.3232 100.919 56.6454C100.942 56.8477 100.994 56.9828 101.22 57.0128C101.325 57.0279 101.49 57.0432 101.602 57.0432C101.685 57.0432 101.722 57.0655 101.722 57.1029C101.722 57.1554 101.662 57.1777 101.58 57.1777C101.084 57.1777 100.611 57.1551 100.409 57.1551C100.236 57.1548 99.7631 57.1772 99.4627 57.1769C99.3651 57.1769 99.3126 57.1545 99.3126 57.1021C99.3126 57.0647 99.3429 57.0423 99.4329 57.0423C99.5452 57.0423 99.6355 57.027 99.703 57.0123C99.8531 56.9822 99.8985 56.8547 99.9209 56.6377C99.9583 56.3226 99.9586 55.7305 99.9589 55.0032L99.9595 53.684Z" fill="#C4B097"/>
</g>
<mask id="mask14_1150_21782" style="mask-type:luminance" maskUnits="userSpaceOnUse" x="0" y="-15" width="143" height="102">
<path d="M0 -15H143V87H0V-15Z" fill="white"/>
</mask>
<g mask="url(#mask14_1150_21782)">
<path d="M103.389 56.4664C102.654 55.8215 102.459 54.9817 102.459 54.2547C102.459 53.7447 102.617 52.8601 103.338 52.2008C103.879 51.7064 104.592 51.4066 105.711 51.4072C106.176 51.4072 106.454 51.4372 106.799 51.4826C107.084 51.52 107.325 51.5877 107.55 51.6104C107.633 51.6177 107.662 51.6551 107.662 51.7005C107.662 51.7605 107.64 51.8503 107.625 52.1127C107.61 52.3601 107.617 52.7723 107.602 52.9222C107.594 53.0344 107.579 53.0944 107.512 53.0944C107.452 53.0944 107.436 53.0344 107.437 52.9296C107.429 52.6972 107.332 52.4349 107.144 52.2399C106.897 51.9773 106.311 51.7747 105.621 51.7744C104.967 51.7744 104.539 51.939 104.209 52.2388C103.661 52.7409 103.518 53.4529 103.517 54.1802C103.517 55.9643 104.875 56.8495 105.881 56.8498C106.549 56.85 106.955 56.7752 107.255 56.4304C107.383 56.2882 107.481 56.0706 107.511 55.936C107.533 55.8159 107.548 55.7858 107.608 55.7858C107.661 55.7861 107.676 55.8383 107.676 55.8983C107.676 55.9881 107.585 56.6407 107.51 56.8954C107.473 57.0226 107.442 57.0603 107.315 57.1127C107.015 57.2325 106.444 57.285 105.964 57.2847C104.935 57.2844 104.072 57.0591 103.389 56.4664Z" fill="#C4B097"/>
</g>
<mask id="mask15_1150_21782" style="mask-type:luminance" maskUnits="userSpaceOnUse" x="0" y="-15" width="143" height="102">
<path d="M0 -15H143V87H0V-15Z" fill="white"/>
</mask>
<g mask="url(#mask15_1150_21782)">
<path d="M111.338 54.8502C111.376 54.8502 111.383 54.8278 111.376 54.8055L110.701 52.9533C110.693 52.9233 110.686 52.8859 110.663 52.8859C110.641 52.8859 110.626 52.9233 110.618 52.9533L109.927 54.7972C109.919 54.8273 109.927 54.8497 109.957 54.8497L111.338 54.8502ZM109.806 55.2245C109.769 55.2245 109.754 55.2395 109.739 55.2846L109.333 56.3564C109.258 56.5437 109.22 56.7236 109.22 56.8137C109.22 56.9483 109.288 57.0461 109.521 57.0461L109.633 57.0463C109.723 57.0463 109.746 57.0611 109.746 57.1061C109.745 57.1662 109.701 57.1809 109.618 57.1809C109.378 57.1809 109.055 57.1583 108.822 57.1583C108.74 57.1583 108.327 57.1804 107.936 57.1804C107.839 57.1804 107.794 57.1653 107.794 57.1053C107.794 57.0605 107.824 57.0455 107.884 57.0455C107.951 57.0455 108.057 57.0381 108.117 57.0305C108.462 56.9857 108.605 56.731 108.755 56.3561L110.641 51.6488C110.731 51.4315 110.776 51.3491 110.851 51.3491C110.919 51.3491 110.964 51.4165 111.039 51.5891C111.219 52.0013 112.419 55.0607 112.899 56.2003C113.184 56.8749 113.402 56.98 113.559 57.0174C113.672 57.0404 113.785 57.0478 113.875 57.0478C113.935 57.0478 113.972 57.0554 113.972 57.1075C113.972 57.1676 113.905 57.1826 113.627 57.1826C113.356 57.1823 112.809 57.1821 112.208 57.167C112.073 57.1594 111.983 57.1594 111.983 57.107C111.983 57.0619 112.013 57.0472 112.088 57.0395C112.14 57.0245 112.193 56.9571 112.155 56.867L111.556 55.2775C111.541 55.2401 111.518 55.2251 111.48 55.2251L109.806 55.2245Z" fill="#C4B097"/>
</g>
<mask id="mask16_1150_21782" style="mask-type:luminance" maskUnits="userSpaceOnUse" x="0" y="-15" width="143" height="102">
<path d="M0 -15H143V87H0V-15Z" fill="white"/>
</mask>
<g mask="url(#mask16_1150_21782)">
<path d="M115.18 56.1635C115.195 56.7483 115.292 56.9429 115.443 56.9956C115.57 57.0407 115.713 57.0483 115.833 57.0483C115.915 57.0483 115.96 57.0633 115.96 57.1081C115.96 57.1682 115.893 57.1832 115.788 57.1832C115.3 57.1829 114.999 57.1602 114.857 57.1602C114.789 57.1602 114.436 57.1826 114.046 57.1823C113.948 57.1823 113.881 57.175 113.881 57.1072C113.881 57.0625 113.926 57.0475 114.001 57.0477C114.098 57.0477 114.234 57.0401 114.339 57.0101C114.534 56.9503 114.564 56.733 114.572 56.0807L114.641 51.6426C114.641 51.4927 114.664 51.3879 114.739 51.3879C114.821 51.3879 114.889 51.4853 115.017 51.6205C115.107 51.718 116.247 52.9403 117.343 54.0277C117.853 54.5374 118.866 55.6175 118.994 55.7373H119.031L118.958 52.3713C118.95 51.914 118.883 51.7718 118.703 51.6967C118.59 51.6517 118.41 51.6517 118.305 51.6514C118.215 51.6514 118.184 51.629 118.184 51.5839C118.184 51.5239 118.267 51.5165 118.38 51.5165C118.77 51.5168 119.13 51.5395 119.288 51.5395C119.371 51.5395 119.656 51.5171 120.024 51.5171C120.121 51.5171 120.196 51.5247 120.196 51.5848C120.196 51.6298 120.152 51.6522 120.061 51.6522C119.986 51.6522 119.926 51.6522 119.836 51.6746C119.626 51.7344 119.566 51.8919 119.558 52.3115L119.474 57.0421C119.473 57.207 119.444 57.2744 119.376 57.2744C119.294 57.2744 119.203 57.1917 119.121 57.1092C118.648 56.6596 117.688 55.677 116.907 54.9046C116.089 54.0948 115.256 53.1573 115.121 53.0148H115.099L115.18 56.1635Z" fill="#C4B097"/>
</g>
<mask id="mask17_1150_21782" style="mask-type:luminance" maskUnits="userSpaceOnUse" x="0" y="-15" width="143" height="102">
<path d="M0 -15H143V87H0V-15Z" fill="white"/>
</mask>
<g mask="url(#mask17_1150_21782)">
<path d="M33.2378 64.1721C33.2509 64.681 33.3357 64.8507 33.4662 64.8963C33.5771 64.9357 33.7014 64.942 33.8058 64.9422C33.8779 64.9422 33.9171 64.9553 33.9171 64.9944C33.9171 65.0468 33.858 65.0598 33.7667 65.0598C33.3422 65.0595 33.0809 65.0397 32.9566 65.0397C32.8979 65.0397 32.5909 65.0593 32.251 65.0593C32.1662 65.059 32.1071 65.0525 32.1074 64.9938C32.1074 64.9544 32.1466 64.9414 32.2118 64.9414C32.297 64.9417 32.4144 64.9352 32.5058 64.9091C32.6757 64.857 32.7021 64.6677 32.7086 64.1002L32.7691 60.2381C32.7691 60.1077 32.7887 60.0162 32.8539 60.0162C32.926 60.0165 32.9847 60.1012 33.0957 60.2188C33.174 60.3035 34.1667 61.3674 35.1201 62.3135C35.5641 62.7575 36.4457 63.6973 36.5569 63.8015H36.5895L36.5254 60.8724C36.5189 60.4744 36.4601 60.3503 36.3035 60.2851C36.2053 60.246 36.0487 60.2457 35.9571 60.2457C35.8788 60.2457 35.8527 60.2262 35.8527 60.1871C35.8527 60.1349 35.9244 60.1284 36.0226 60.1284C36.3622 60.1287 36.6758 60.1482 36.8131 60.1482C36.8849 60.1482 37.1331 60.129 37.4532 60.129C37.538 60.129 37.6036 60.1355 37.6036 60.1879C37.6036 60.2267 37.5641 60.2463 37.4858 60.2463C37.4206 60.2463 37.3683 60.2463 37.2898 60.2658C37.107 60.318 37.0545 60.4551 37.0477 60.8203L36.9745 64.9369C36.9745 65.0802 36.9481 65.1392 36.8894 65.1392C36.8176 65.1392 36.7393 65.0672 36.6673 64.9955C36.2561 64.6039 35.4203 63.7491 34.7407 63.0768C34.0291 62.3721 33.3042 61.5561 33.1867 61.432H33.1672L33.2378 64.1721Z" fill="#FF999A"/>
</g>
<mask id="mask18_1150_21782" style="mask-type:luminance" maskUnits="userSpaceOnUse" x="0" y="-15" width="143" height="102">
<path d="M0 -15H143V87H0V-15Z" fill="white"/>
</mask>
<g mask="url(#mask18_1150_21782)">
<path d="M41.9594 63.0337C41.9921 63.0337 41.9986 63.0141 41.9921 62.9943L41.4047 61.383C41.3982 61.3566 41.3917 61.324 41.3721 61.324C41.3525 61.324 41.3395 61.3566 41.333 61.383L40.7312 62.9875C40.7246 63.0136 40.7312 63.0331 40.7573 63.0331L41.9594 63.0337ZM40.6265 63.3595C40.5938 63.3595 40.5808 63.3723 40.5677 63.4114L40.2145 64.3444C40.1492 64.5076 40.1166 64.6637 40.1166 64.7422C40.1163 64.8598 40.1751 64.9445 40.3776 64.9445H40.4755C40.5541 64.9445 40.5737 64.9575 40.5737 64.9969C40.5737 65.049 40.5345 65.0621 40.4625 65.0621C40.2536 65.0621 39.9725 65.0422 39.7702 65.0422C39.6984 65.0422 39.3389 65.0618 38.9993 65.0615C38.9142 65.0615 38.875 65.0485 38.875 64.9963C38.875 64.9569 38.9014 64.9439 38.9536 64.9439C39.0123 64.9439 39.1037 64.9377 39.1562 64.9309C39.4566 64.8921 39.5809 64.6702 39.7114 64.3441L41.3528 60.2477C41.4314 60.0584 41.4706 59.9867 41.5361 59.987C41.5948 59.987 41.634 60.0456 41.6992 60.1955C41.8559 60.5545 42.9 63.2167 43.3179 64.2084C43.5659 64.7957 43.7554 64.8872 43.8925 64.9198C43.9904 64.9394 44.0885 64.9459 44.1669 64.9459C44.2191 64.9459 44.252 64.9527 44.2517 64.9983C44.2517 65.0504 44.193 65.0635 43.9512 65.0635C43.716 65.0635 43.2391 65.0632 42.7164 65.0499C42.599 65.0434 42.5204 65.0434 42.5204 64.9975C42.5204 64.9584 42.5468 64.9453 42.612 64.9391C42.6577 64.9261 42.7037 64.8671 42.6707 64.7886L42.1487 63.4057C42.1356 63.3731 42.116 63.3601 42.0834 63.3601L40.6265 63.3595Z" fill="#FF999A"/>
</g>
<mask id="mask19_1150_21782" style="mask-type:luminance" maskUnits="userSpaceOnUse" x="0" y="-15" width="143" height="102">
<path d="M0 -15H143V87H0V-15Z" fill="white"/>
</mask>
<g mask="url(#mask19_1150_21782)">
<path d="M46.6099 64.177C46.6229 64.6859 46.7078 64.8556 46.8383 64.9012C46.9495 64.9406 47.0735 64.9468 47.1779 64.9471C47.25 64.9471 47.2891 64.9602 47.2891 64.9993C47.2891 65.0517 47.2301 65.0647 47.1387 65.0647C46.7143 65.0644 46.453 65.0446 46.3287 65.0446C46.27 65.0446 45.963 65.0641 45.6231 65.0641C45.5382 65.0639 45.4792 65.0573 45.4795 64.9987C45.4795 64.9593 45.5186 64.9463 45.5839 64.9463C45.669 64.9466 45.7865 64.94 45.8779 64.914C46.0478 64.8618 46.0742 64.6726 46.0807 64.1051L46.1412 60.2429C46.1412 60.1126 46.1607 60.0211 46.226 60.0211C46.2981 60.0214 46.3568 60.1061 46.4677 60.2237C46.546 60.3084 47.5388 61.3723 48.4921 62.3184C48.9362 62.7623 49.8177 63.7022 49.9289 63.8064H49.9616L49.8975 60.8773C49.8909 60.4792 49.8322 60.3551 49.6756 60.29C49.5774 60.2509 49.4208 60.2506 49.3291 60.2506C49.2508 60.2506 49.2247 60.231 49.2247 60.1919C49.2247 60.1398 49.2965 60.1333 49.3947 60.1333C49.7343 60.1336 50.0478 60.1531 50.1852 60.1531C50.2569 60.1531 50.5052 60.1339 50.8253 60.1339C50.9101 60.1339 50.9756 60.1404 50.9756 60.1928C50.9756 60.2316 50.9362 60.2512 50.8579 60.2512C50.7926 60.2512 50.7404 60.2512 50.6618 60.2707C50.4791 60.3228 50.4266 60.46 50.4198 60.8252L50.3466 64.9417C50.3466 65.0851 50.3202 65.144 50.2615 65.144C50.1897 65.144 50.1114 65.0721 50.0393 65.0004C49.6282 64.6088 48.792 63.754 48.1128 63.0817C47.4012 62.377 46.6763 61.561 46.5588 61.4369H46.5392L46.6099 64.177Z" fill="#FF999A"/>
</g>
<mask id="mask20_1150_21782" style="mask-type:luminance" maskUnits="userSpaceOnUse" x="0" y="-15" width="143" height="102">
<path d="M0 -15H143V87H0V-15Z" fill="white"/>
</mask>
<g mask="url(#mask20_1150_21782)">
<path d="M54.1033 64.18C54.1164 64.6888 54.2012 64.8585 54.3317 64.9042C54.4429 64.9435 54.5669 64.9498 54.6713 64.9501C54.7434 64.9501 54.7826 64.9631 54.7826 65.0022C54.7826 65.0546 54.7236 65.0676 54.6322 65.0676C54.2077 65.0674 53.9464 65.0475 53.8221 65.0475C53.7634 65.0475 53.4564 65.0671 53.1165 65.0671C53.0317 65.0668 52.9727 65.0603 52.9727 65.0016C52.9729 64.9622 53.0121 64.9492 53.0774 64.9492C53.1625 64.9495 53.2799 64.943 53.3713 64.9169C53.5413 64.8648 53.5676 64.6755 53.5742 64.108L53.6346 60.2459C53.6346 60.1155 53.6542 60.024 53.7194 60.024C53.7915 60.0243 53.8502 60.109 53.9612 60.2266C54.0395 60.3113 55.0323 61.3752 55.9856 62.3213C56.4296 62.7653 57.3112 63.7051 57.4224 63.8094H57.455L57.3909 60.8803C57.3844 60.4822 57.3256 60.3581 57.169 60.2929C57.0709 60.2538 56.9142 60.2535 56.8226 60.2535C56.7443 60.2535 56.7182 60.234 56.7182 60.1949C56.7182 60.1427 56.79 60.1362 56.8881 60.1362C57.2278 60.1365 57.5413 60.1561 57.6786 60.1561C57.7504 60.1561 57.9987 60.1368 58.3187 60.1368C58.4035 60.1368 58.4691 60.1433 58.4691 60.1957C58.4691 60.2345 58.4296 60.2541 58.3513 60.2541C58.2861 60.2541 58.2339 60.2541 58.1553 60.2736C57.9725 60.3258 57.9201 60.4629 57.9132 60.8281L57.84 64.9447C57.84 65.088 57.8137 65.147 57.7549 65.147C57.6831 65.147 57.6048 65.075 57.5328 65.0033C57.1216 64.6118 56.2855 63.7569 55.6062 63.0846C54.8946 62.3799 54.1697 61.5639 54.0522 61.4398H54.0327L54.1033 64.18Z" fill="#FF999A"/>
</g>
<mask id="mask21_1150_21782" style="mask-type:luminance" maskUnits="userSpaceOnUse" x="0" y="-15" width="143" height="102">
<path d="M0 -15H143V87H0V-15Z" fill="white"/>
</mask>
<g mask="url(#mask21_1150_21782)">
<path d="M61.9619 63.3804C61.9619 63.0283 61.8969 62.8846 61.8121 62.6953C61.7661 62.5911 60.8913 61.1554 60.6627 60.816C60.4995 60.5746 60.3364 60.4114 60.2121 60.3397C60.1273 60.2941 60.0163 60.2547 59.9377 60.2547C59.8855 60.2547 59.8398 60.2417 59.8398 60.1961C59.8398 60.1567 59.8855 60.1374 59.9638 60.1374C60.0816 60.1374 60.5716 60.157 60.7872 60.157C60.9243 60.1572 61.1924 60.138 61.4863 60.138C61.5516 60.138 61.5842 60.1572 61.5842 60.1966C61.5842 60.2357 61.5385 60.2422 61.4404 60.2683C61.3816 60.2813 61.3487 60.3335 61.3487 60.3859C61.3487 60.4377 61.3816 60.5162 61.4273 60.6075C61.5187 60.8035 62.4326 62.376 62.537 62.5585C62.6025 62.4021 63.4262 60.967 63.5178 60.765C63.5831 60.6213 63.6095 60.5106 63.6095 60.4258C63.6095 60.3604 63.5834 60.2887 63.4722 60.2626C63.4134 60.2493 63.3547 60.2363 63.3547 60.1975C63.3547 60.1516 63.3873 60.1388 63.4656 60.1388C63.6813 60.1388 63.8904 60.1584 64.0799 60.1584C64.2235 60.1584 64.6547 60.1391 64.7787 60.1391C64.8508 60.1391 64.8965 60.1521 64.8965 60.1912C64.8965 60.2369 64.844 60.2567 64.7722 60.2564C64.707 60.2564 64.583 60.2825 64.4848 60.3346C64.3475 60.4001 64.2757 60.4783 64.1318 60.6542C63.9162 60.9152 63.0009 62.4477 62.8831 62.7282C62.7852 62.9631 62.7852 63.1654 62.785 63.3807V63.9157C62.785 64.0202 62.7847 64.2942 62.8043 64.5682C62.8173 64.7574 62.876 64.9008 63.0718 64.9269C63.1635 64.9402 63.307 64.9532 63.3984 64.9532C63.4705 64.9532 63.5031 64.9728 63.5031 65.0054C63.5031 65.0513 63.4509 65.0708 63.3658 65.0708C62.9543 65.0705 62.5427 65.0507 62.3662 65.0507C62.203 65.0507 61.7913 65.0702 61.5496 65.07C61.4582 65.07 61.406 65.0569 61.406 65.0048C61.406 64.9719 61.4387 64.9524 61.5104 64.9524C61.6021 64.9524 61.6804 64.9396 61.7391 64.9266C61.8699 64.9005 61.9287 64.7569 61.942 64.5676C61.9616 64.2939 61.9616 64.0199 61.9616 63.9154L61.9619 63.3804Z" fill="#FF999A"/>
</g>
<mask id="mask22_1150_21782" style="mask-type:luminance" maskUnits="userSpaceOnUse" x="0" y="-15" width="143" height="102">
<path d="M0 -15H143V87H0V-15Z" fill="white"/>
</mask>
<g mask="url(#mask22_1150_21782)">
<path d="M69.8203 64.995C69.7159 64.9494 69.6963 64.9166 69.6963 64.7732C69.6963 64.4142 69.7227 64.0229 69.7292 63.9184C69.736 63.8206 69.7553 63.7487 69.8078 63.7487C69.8665 63.7489 69.8731 63.8079 69.8731 63.8597C69.8731 63.9447 69.8992 64.0819 69.9318 64.1926C70.0754 64.6752 70.4607 64.8517 70.8658 64.852C71.4537 64.852 71.7411 64.4542 71.7414 64.1085C71.7414 63.7889 71.6435 63.4886 71.1013 63.0644L70.8011 62.8295C70.0824 62.268 69.8345 61.8115 69.8347 61.2828C69.835 60.5651 70.4363 60.0503 71.3445 60.0506C71.7689 60.0506 72.0436 60.1158 72.2133 60.1617C72.272 60.175 72.3046 60.1942 72.3046 60.2399C72.3046 60.3249 72.2782 60.5141 72.2782 61.023C72.2779 61.1664 72.2587 61.2185 72.2062 61.2185C72.1605 61.2185 72.1409 61.1794 72.1409 61.1012C72.1409 61.0423 72.1083 60.8402 71.9712 60.6705C71.8734 60.5467 71.6841 60.3506 71.2594 60.3504C70.7759 60.3504 70.4817 60.6309 70.4814 61.0221C70.4814 61.3222 70.6317 61.5508 71.174 61.962L71.3567 62.0988C72.1469 62.693 72.4278 63.1432 72.4275 63.7631C72.4275 64.1414 72.2833 64.5916 71.8129 64.8979C71.4861 65.1067 71.1203 65.165 70.7739 65.165C70.3951 65.1648 70.1012 65.1191 69.8203 64.995Z" fill="#FF999A"/>
</g>
<mask id="mask23_1150_21782" style="mask-type:luminance" maskUnits="userSpaceOnUse" x="0" y="-15" width="143" height="102">
<path d="M0 -15H143V87H0V-15Z" fill="white"/>
</mask>
<g mask="url(#mask23_1150_21782)">
<path d="M75.2883 62.0351C75.2886 61.0435 75.2889 60.8607 75.2758 60.6522C75.2625 60.4303 75.2106 60.3261 74.9949 60.2802C74.9427 60.2671 74.8315 60.2606 74.7401 60.2606C74.6683 60.2603 74.6289 60.2476 74.6289 60.2017C74.6289 60.1561 74.6746 60.143 74.7728 60.1433C74.9492 60.1433 75.1388 60.1498 75.3019 60.1498C75.4719 60.1564 75.622 60.1629 75.7136 60.1629C75.9227 60.1629 77.2228 60.1634 77.3468 60.1572C77.471 60.1442 77.5754 60.1311 77.6279 60.1181C77.6606 60.1116 77.6997 60.092 77.7323 60.092C77.765 60.092 77.7715 60.1181 77.7715 60.1507C77.7712 60.1963 77.7389 60.2745 77.719 60.5748C77.7125 60.64 77.6994 60.927 77.6864 61.0055C77.6796 61.0381 77.6665 61.0769 77.6208 61.0769C77.5752 61.0769 77.5621 61.0443 77.5621 60.9857C77.5621 60.9401 77.5556 60.829 77.5232 60.7508C77.4773 60.6335 77.412 60.555 77.0854 60.5159C76.9742 60.5026 76.2882 60.4893 76.1579 60.4893C76.125 60.4893 76.112 60.5088 76.112 60.5547L76.1114 62.2051C76.1114 62.2508 76.1176 62.2771 76.1571 62.2771C76.3006 62.2771 77.052 62.2774 77.2023 62.2644C77.3592 62.251 77.4571 62.2318 77.5159 62.1666C77.5618 62.1142 77.5876 62.0816 77.6206 62.0816C77.6467 62.0816 77.6662 62.0949 77.6662 62.134C77.6662 62.1731 77.6401 62.2777 77.6137 62.61C77.6072 62.7406 77.5874 63.0016 77.5874 63.0472C77.5874 63.0996 77.5874 63.1713 77.5286 63.1713C77.4829 63.1713 77.4699 63.1452 77.4699 63.1127C77.4634 63.0472 77.4634 62.9622 77.4438 62.8778C77.4112 62.7472 77.3198 62.6494 77.0781 62.6231C76.9538 62.61 76.3072 62.6032 76.1503 62.6032C76.1176 62.6032 76.1114 62.6293 76.1111 62.6684V63.1838C76.1108 63.4056 76.104 64.0057 76.1105 64.195C76.1236 64.6452 76.228 64.743 76.8942 64.7432C77.0642 64.7432 77.3385 64.7432 77.5085 64.665C77.6782 64.5868 77.7567 64.45 77.8024 64.1828C77.8158 64.1108 77.8288 64.0848 77.8745 64.0848C77.9267 64.0848 77.9267 64.1369 77.9267 64.2021C77.9267 64.3522 77.8742 64.7959 77.8416 64.9263C77.7959 65.0957 77.7372 65.0957 77.4889 65.0957C76.9986 65.0954 76.6394 65.0824 76.3585 65.0759C76.0776 65.0628 75.875 65.056 75.6793 65.056C75.6072 65.056 75.4634 65.0558 75.3067 65.0626C75.1564 65.0623 74.9864 65.0753 74.8559 65.0753C74.7711 65.0753 74.7251 65.0555 74.7254 65.0099C74.7254 64.9773 74.7512 64.9577 74.8298 64.9577C74.9277 64.9577 75.0063 64.9447 75.065 64.9317C75.1958 64.9059 75.2284 64.7622 75.2545 64.573C75.2874 64.299 75.2877 63.7836 75.2877 63.1835L75.2883 62.0351Z" fill="#FF999A"/>
</g>
<mask id="mask24_1150_21782" style="mask-type:luminance" maskUnits="userSpaceOnUse" x="0" y="-15" width="143" height="102">
<path d="M0 -15H143V87H0V-15Z" fill="white"/>
</mask>
<g mask="url(#mask24_1150_21782)">
<path d="M81.4945 62.5529C81.4945 62.6246 81.5075 62.6509 81.5532 62.6702C81.6902 62.7158 81.8866 62.7357 82.0497 62.7357C82.311 62.7359 82.3959 62.7099 82.5136 62.6249C82.7097 62.4818 82.8992 62.1815 82.8992 61.6468C82.8998 60.7203 82.2858 60.4526 81.9005 60.4526C81.7368 60.4523 81.6193 60.4588 81.554 60.4783C81.5084 60.4914 81.4953 60.5174 81.4953 60.5696L81.4945 62.5529ZM80.7238 62.0372C80.7241 61.0456 80.7241 60.8628 80.7114 60.6543C80.698 60.4324 80.6461 60.3279 80.4305 60.2823C80.3783 60.2692 80.267 60.2624 80.1757 60.2624C80.1039 60.2624 80.0645 60.2494 80.0645 60.2038C80.0645 60.1582 80.1101 60.1451 80.2083 60.1451C80.5547 60.1454 80.9661 60.165 81.1032 60.165C81.3256 60.165 81.8222 60.1457 82.0245 60.146C82.4362 60.146 82.8739 60.1851 83.2263 60.4271C83.4093 60.5509 83.6707 60.8835 83.6707 61.3207C83.6704 61.8035 83.4675 62.2472 82.8076 62.7816C83.3886 63.5126 83.8395 64.0934 84.2245 64.498C84.5902 64.8765 84.8581 64.9224 84.956 64.942C85.028 64.955 85.0868 64.9615 85.139 64.9615C85.1912 64.9615 85.2176 64.9811 85.2176 65.0139C85.2176 65.0661 85.1719 65.0791 85.0933 65.0791L84.4728 65.0788C84.1068 65.0788 83.9433 65.046 83.7737 64.9547C83.4928 64.8043 83.2445 64.4977 82.8791 63.9954C82.6177 63.6364 82.3176 63.1927 82.2324 63.0946C82.1998 63.0555 82.1607 63.049 82.115 63.049L81.5467 63.0357C81.514 63.0357 81.4942 63.0487 81.4942 63.0878V63.1794C81.4939 63.786 81.4939 64.3014 81.5262 64.5753C81.5461 64.7646 81.585 64.9083 81.781 64.9343C81.8789 64.9474 82.0228 64.9604 82.1011 64.9604C82.1533 64.9604 82.1797 64.9799 82.1797 65.0128C82.1797 65.0584 82.1337 65.078 82.0489 65.078C81.6701 65.0777 81.1866 65.0579 81.0884 65.0579C80.9642 65.0579 80.5528 65.0774 80.2914 65.0774C80.2066 65.0771 80.1606 65.0576 80.1606 65.012C80.1606 64.9794 80.1867 64.9595 80.2653 64.9595C80.3632 64.9598 80.4418 64.9468 80.5005 64.9338C80.6313 64.9077 80.664 64.7643 80.6901 64.5751C80.723 64.3011 80.7233 63.7857 80.7233 63.1853L80.7238 62.0372Z" fill="#FF999A"/>
</g>
<mask id="mask25_1150_21782" style="mask-type:luminance" maskUnits="userSpaceOnUse" x="0" y="-15" width="143" height="102">
<path d="M0 -15H143V87H0V-15Z" fill="white"/>
</mask>
<g mask="url(#mask25_1150_21782)">
<path d="M86.1988 60.7865C86.0484 60.4278 85.9375 60.3559 85.7025 60.2904C85.6044 60.2643 85.4999 60.2643 85.4475 60.2643C85.3887 60.2643 85.3691 60.2448 85.3691 60.2057C85.3691 60.1533 85.4412 60.147 85.5391 60.147C85.8852 60.1473 86.2578 60.1669 86.4862 60.1669C86.6499 60.1669 86.9631 60.1476 87.29 60.1479C87.3683 60.1479 87.4401 60.1609 87.4401 60.2065C87.4401 60.2522 87.4009 60.2652 87.3422 60.2652C87.2378 60.2652 87.1396 60.2717 87.0871 60.3105C87.0414 60.3434 87.0219 60.389 87.0219 60.4477C87.0219 60.5327 87.0806 60.7151 87.172 60.95L88.2944 63.9123H88.3208C88.6017 63.1949 89.452 61.0942 89.6089 60.6638C89.6415 60.5791 89.6679 60.4814 89.6679 60.4227C89.6679 60.3703 89.6415 60.3182 89.5828 60.2986C89.5045 60.2726 89.4063 60.2658 89.3218 60.2658C89.2628 60.2658 89.2106 60.2592 89.2106 60.2136C89.2106 60.1615 89.2693 60.1485 89.3936 60.1485C89.7201 60.1487 89.9948 60.1683 90.0796 60.1683C90.1906 60.1683 90.4976 60.149 90.6936 60.149C90.7785 60.149 90.8309 60.1621 90.8309 60.2077C90.8309 60.2533 90.7915 60.2663 90.7262 60.2663C90.6607 60.2663 90.5237 60.2663 90.4062 60.3445C90.3211 60.4032 90.2232 60.5142 90.0464 60.9316C89.7916 61.5447 89.6149 61.8972 89.2619 62.6993C88.8434 63.6516 88.5361 64.3625 88.3923 64.6886C88.2223 65.0671 88.1829 65.1714 88.0915 65.1714C88.0067 65.1714 87.9673 65.0802 87.8433 64.7736L86.1988 60.7865Z" fill="#FF999A"/>
</g>
<mask id="mask26_1150_21782" style="mask-type:luminance" maskUnits="userSpaceOnUse" x="0" y="-15" width="143" height="102">
<path d="M0 -15H143V87H0V-15Z" fill="white"/>
</mask>
<g mask="url(#mask26_1150_21782)">
<path d="M92.835 62.0418C92.8353 61.0501 92.8356 60.8674 92.8225 60.6588C92.8092 60.437 92.7442 60.3259 92.6004 60.2933C92.5286 60.2738 92.4435 60.2673 92.3652 60.2673C92.2999 60.2673 92.2607 60.2542 92.2607 60.2018C92.2607 60.1627 92.3132 60.1497 92.4176 60.15C92.6659 60.15 93.0773 60.1695 93.2668 60.1695C93.43 60.1695 93.8159 60.1505 94.0641 60.1505C94.1487 60.1505 94.2012 60.1636 94.2012 60.2027C94.2012 60.2548 94.1617 60.2678 94.0965 60.2678C94.0312 60.2678 93.979 60.2744 93.9004 60.2874C93.7239 60.32 93.6717 60.431 93.6587 60.6591C93.6453 60.8679 93.6453 61.0504 93.6448 62.0421L93.6445 63.1904C93.6442 63.8231 93.6439 64.3388 93.6703 64.6193C93.6899 64.7952 93.7356 64.9128 93.9313 64.9389C94.0227 64.9519 94.1666 64.9649 94.2644 64.9649C94.3365 64.9649 94.3691 64.9848 94.3691 65.0174C94.3691 65.063 94.3167 65.0825 94.2452 65.0825C93.8139 65.0825 93.4022 65.0627 93.226 65.0627C93.0753 65.0624 92.6639 65.082 92.4026 65.082C92.3178 65.082 92.2718 65.0621 92.2721 65.0165C92.2721 64.9839 92.2979 64.9644 92.3765 64.9644C92.4744 64.9644 92.553 64.9513 92.6117 64.9383C92.7425 64.9125 92.7817 64.8015 92.8012 64.6122C92.8342 64.3382 92.8344 63.8228 92.8344 63.1901L92.835 62.0418Z" fill="#FF999A"/>
</g>
<mask id="mask27_1150_21782" style="mask-type:luminance" maskUnits="userSpaceOnUse" x="0" y="-15" width="143" height="102">
<path d="M0 -15H143V87H0V-15Z" fill="white"/>
</mask>
<g mask="url(#mask27_1150_21782)">
<path d="M97.1256 64.4638C96.4858 63.9025 96.3161 63.1715 96.3164 62.5388C96.3167 62.0954 96.454 61.3256 97.0813 60.7515C97.5521 60.3211 98.1726 60.0605 99.146 60.061C99.5512 60.061 99.7927 60.0871 100.093 60.1262C100.342 60.1591 100.551 60.2177 100.747 60.2376C100.818 60.2441 100.844 60.2769 100.844 60.3158C100.844 60.3682 100.825 60.4464 100.812 60.6747C100.798 60.8901 100.805 61.2488 100.792 61.3791C100.785 61.4771 100.772 61.5293 100.714 61.5293C100.661 61.5293 100.648 61.4771 100.648 61.3859C100.642 61.1836 100.557 60.9552 100.394 60.7855C100.178 60.5572 99.6687 60.3806 99.0675 60.3804C98.4991 60.3804 98.1269 60.5237 97.8392 60.7847C97.362 61.2213 97.2377 61.8409 97.2374 62.4739C97.2368 64.0266 98.4191 64.797 99.2944 64.7972C99.8761 64.7972 100.229 64.7324 100.49 64.4323C100.601 64.3085 100.686 64.1192 100.713 64.0019C100.732 63.8977 100.745 63.8713 100.797 63.8713C100.843 63.8713 100.856 63.9169 100.856 63.9693C100.856 64.0475 100.778 64.6151 100.712 64.8369C100.68 64.948 100.654 64.9803 100.542 65.0262C100.281 65.1304 99.7844 65.1758 99.3665 65.1758C98.4713 65.1752 97.72 64.9791 97.1256 64.4638Z" fill="#FF999A"/>
</g>
<mask id="mask28_1150_21782" style="mask-type:luminance" maskUnits="userSpaceOnUse" x="0" y="-15" width="143" height="102">
<path d="M0 -15H143V87H0V-15Z" fill="white"/>
</mask>
<g mask="url(#mask28_1150_21782)">
<path d="M103.562 62.0459C103.562 61.0542 103.562 60.8715 103.549 60.6629C103.536 60.4411 103.484 60.3368 103.268 60.2909C103.216 60.2779 103.105 60.2714 103.014 60.2714C102.942 60.2711 102.902 60.2583 102.902 60.2124C102.902 60.1668 102.948 60.1538 103.046 60.1541C103.223 60.1541 103.412 60.1606 103.575 60.1606C103.745 60.1671 103.895 60.1736 103.987 60.1736C104.196 60.1736 105.496 60.1742 105.62 60.1679C105.744 60.1549 105.849 60.1419 105.901 60.1288C105.934 60.1223 105.973 60.1028 106.006 60.1028C106.038 60.1028 106.045 60.1288 106.045 60.1614C106.045 60.207 106.012 60.2852 105.992 60.5856C105.986 60.6507 105.973 60.9378 105.96 61.0162C105.953 61.0488 105.94 61.0876 105.894 61.0876C105.849 61.0876 105.836 61.0551 105.836 60.9964C105.836 60.9508 105.829 60.8397 105.797 60.7615C105.751 60.6442 105.685 60.5657 105.359 60.5266C105.248 60.5133 104.562 60.5 104.431 60.5C104.398 60.5 104.385 60.5196 104.385 60.5655L104.385 62.2159C104.385 62.2615 104.391 62.2878 104.431 62.2878C104.574 62.2878 105.325 62.2881 105.476 62.2751C105.633 62.2618 105.731 62.2425 105.789 62.1773C105.835 62.1249 105.861 62.0923 105.894 62.0923C105.92 62.0923 105.94 62.1057 105.94 62.1448C105.94 62.1839 105.914 62.2884 105.887 62.6208C105.881 62.7514 105.861 63.0123 105.861 63.0579C105.861 63.1104 105.861 63.182 105.802 63.182C105.756 63.182 105.743 63.156 105.743 63.1234C105.737 63.0579 105.737 62.9729 105.718 62.8885C105.685 62.7579 105.593 62.6601 105.352 62.6338C105.227 62.6208 104.581 62.614 104.424 62.614C104.391 62.614 104.385 62.64 104.385 62.6791L104.385 63.1945C104.385 63.4164 104.377 64.0165 104.384 64.2057C104.397 64.6559 104.501 64.7537 105.168 64.754C105.338 64.754 105.612 64.754 105.782 64.6758C105.952 64.5976 106.03 64.4607 106.076 64.1935C106.089 64.1216 106.102 64.0955 106.148 64.0955C106.2 64.0955 106.2 64.1476 106.2 64.2128C106.2 64.363 106.148 64.8067 106.115 64.937C106.069 65.1064 106.011 65.1064 105.762 65.1064C105.272 65.1062 104.913 65.0931 104.632 65.0866C104.351 65.0736 104.148 65.0668 103.953 65.0668C103.881 65.0668 103.737 65.0665 103.58 65.0733C103.43 65.073 103.26 65.086 103.129 65.086C103.044 65.086 102.999 65.0662 102.999 65.0206C102.999 64.988 103.025 64.9685 103.103 64.9685C103.201 64.9685 103.28 64.9554 103.338 64.9424C103.469 64.9166 103.502 64.773 103.528 64.5837C103.561 64.3097 103.561 63.7943 103.561 63.1942L103.562 62.0459Z" fill="#FF999A"/>
</g>
<mask id="mask29_1150_21782" style="mask-type:luminance" maskUnits="userSpaceOnUse" x="0" y="-15" width="143" height="102">
<path d="M0 -15H143V87H0V-15Z" fill="white"/>
</mask>
<g mask="url(#mask29_1150_21782)">
<path d="M108.211 62.4469L108.211 62.9277L119.19 62.4512L108.211 62.4469Z" fill="#FF999A"/>
</g>
<mask id="mask30_1150_21782" style="mask-type:luminance" maskUnits="userSpaceOnUse" x="0" y="-15" width="143" height="102">
<path d="M0 -15H143V87H0V-15Z" fill="white"/>
</mask>
<g mask="url(#mask30_1150_21782)">
<path d="M28.4831 62.4166L28.4828 62.8975L17.5039 62.4124L28.4831 62.4166Z" fill="#FF999A"/>
</g>
<mask id="mask31_1150_21782" style="mask-type:luminance" maskUnits="userSpaceOnUse" x="0" y="-15" width="143" height="102">
<path d="M0 -15H143V87H0V-15Z" fill="white"/>
</mask>
<g mask="url(#mask31_1150_21782)">
<path d="M69.0367 2.04848C58.9092 2.04452 50.6961 10.2399 50.6924 20.3529C50.6904 25.1654 52.55 29.542 55.5884 32.8114C53.101 29.5913 51.6145 25.5241 51.6162 21.28C51.6199 11.6764 59.4185 3.89412 69.0361 3.89752C78.6537 3.9012 86.4466 11.6895 86.443 21.2933C86.4412 26.0145 84.5082 30.515 81.4031 33.873C85.066 30.5269 87.3651 25.7153 87.3671 20.3668C87.371 10.2538 79.1644 2.05245 69.0367 2.04848Z" fill="#FF999A"/>
</g>
<mask id="mask32_1150_21782" style="mask-type:luminance" maskUnits="userSpaceOnUse" x="0" y="-15" width="143" height="102">
<path d="M0 -15H143V87H0V-15Z" fill="white"/>
</mask>
<g mask="url(#mask32_1150_21782)">
<path d="M66.985 6.7066C66.985 6.7066 66.8599 5.04287 68.3376 4.76095C69.8153 4.47875 71.7012 5.01312 71.7004 7.1792C71.7004 7.1792 69.9827 5.76565 66.985 6.7066Z" fill="#FF999A"/>
</g>
<mask id="mask33_1150_21782" style="mask-type:luminance" maskUnits="userSpaceOnUse" x="0" y="-15" width="143" height="102">
<path d="M0 -15H143V87H0V-15Z" fill="white"/>
</mask>
<g mask="url(#mask33_1150_21782)">
<path d="M67.0059 6.60179C67.0059 6.60179 69.312 5.34662 71.6378 7.02197C71.6378 7.02197 69.5007 4.82359 67.0059 6.60179Z" fill="#FF999A"/>
</g>
<mask id="mask34_1150_21782" style="mask-type:luminance" maskUnits="userSpaceOnUse" x="0" y="-15" width="143" height="102">
<path d="M0 -15H143V87H0V-15Z" fill="white"/>
</mask>
<g mask="url(#mask34_1150_21782)">
<path d="M96.6776 47.2946C96.6773 47.9536 84.2945 48.4832 69.0199 48.4775C53.7453 48.4718 41.363 47.9326 41.3633 47.2736C41.3636 46.6146 53.7461 46.0847 69.0207 46.0904C84.2953 46.0964 96.6779 46.6355 96.6776 47.2946Z" fill="#C4B097"/>
</g>
<mask id="mask35_1150_21782" style="mask-type:luminance" maskUnits="userSpaceOnUse" x="0" y="-15" width="143" height="102">
<path d="M0 -15H143V87H0V-15Z" fill="white"/>
</mask>
<g mask="url(#mask35_1150_21782)">
<path d="M79.0838 27.0203C79.0838 27.0203 79.3148 25.2351 81.5636 25.4665C82.4866 25.4087 85.5435 26.3316 83.5806 30.1897C83.8113 30.1322 84.042 30.4776 83.7534 30.8232C83.4649 31.1683 82.932 31.3409 82.4775 30.9737C82.3254 31.1678 81.8283 31.3406 81.5037 31.3403C81.3528 31.3621 81.2013 31.837 81.6121 32.1827C81.9583 32.2476 83.4708 33.6954 83.7307 34.2133L83.5792 34.3C83.5792 34.3 84.3793 35.445 84.5947 38.1664C84.6154 38.3378 85.2427 38.9002 84.7885 39.202C84.3558 39.4833 84.1396 39.7423 84.0091 39.3751C83.7716 39.5049 83.4479 39.2238 83.5131 38.5755C83.6859 38.1443 83.7506 38.2735 83.6218 37.7986C83.4915 37.3232 82.7785 35.6388 82.6273 35.358L82.5626 35.5093L82.3893 35.3362C82.3893 35.3362 82.9502 39.9358 83.771 41.4695C83.8794 41.88 83.0572 42.1608 83.0572 42.1608C83.0572 42.1608 83.7696 44.8395 83.769 46.2862C84.0284 46.6318 84.98 47.6034 84.4395 48.0578C84.2664 48.1216 83.9203 47.9924 83.5957 47.6904C83.2714 47.3861 82.709 46.8899 82.9476 46.6089C82.6018 45.7453 81.9103 44.4927 81.5432 42.787C81.1102 42.8289 80.5918 43.0023 80.0295 42.8726C79.9639 43.0233 80.1583 44.8805 79.7247 46.8239C79.7463 46.8239 80.1137 47.5379 79.2705 47.7958C78.4267 48.0556 77.0214 48.0102 77.8649 47.3203C78.7087 46.6296 79.0546 46.7596 78.7952 45.6583C78.5362 44.5561 78.4077 43.3896 78.408 42.7859C78.2127 42.8065 77.521 42.8063 77.6944 42.1376C77.8672 41.4675 77.8887 41.8996 77.9977 39.3946C78.1066 36.89 77.9341 35.7447 78.4111 34.2547C78.4318 34.2113 77.5885 33.628 77.2642 33.5634L77.2864 33.4772C77.2864 33.4772 76.3135 33.2823 75.5128 32.5476C74.7135 31.8129 74.4326 30.5388 74.4326 30.5388C74.4326 30.5388 73.8918 30.6028 73.7846 29.3723C73.5244 29.0045 73.4384 28.6591 73.5244 28.4435C73.5899 28.4435 73.9579 29.0048 73.9579 29.0048C73.9579 29.0048 73.698 28.2925 73.8498 28.0984C73.9792 28.0333 73.9582 28.2492 73.9582 28.2492C73.9582 28.2492 74.0663 27.7525 74.2604 27.7525C74.4553 27.7528 74.4984 28.0984 74.4984 28.0984C74.4984 28.0984 74.5637 27.7958 74.7578 27.9256C74.9524 28.0551 74.844 28.8756 74.844 28.8756C74.844 28.8756 75.1252 28.4872 75.4282 28.509C75.7307 28.5308 75.1893 29.4162 75.0818 29.7828C74.9731 30.1498 75.536 30.1931 76.2269 31.5545C76.7033 31.533 77.4379 31.7704 77.8272 32.03L77.8709 31.7707C77.8709 31.7707 78.7791 32.2034 79.9466 32.0093C80.4012 31.9229 80.2068 31.4044 80.2068 31.4044C80.2068 31.4044 78.9956 31.0802 78.6068 29.6332C78.4338 29.115 78.4341 28.5101 78.8673 28.1644C79.3216 27.7975 79.2994 27.3008 79.2784 26.8909C79.2345 26.977 79.0838 27.0203 79.0838 27.0203Z" fill="#C4B097"/>
</g>
<mask id="mask36_1150_21782" style="mask-type:luminance" maskUnits="userSpaceOnUse" x="0" y="-15" width="143" height="102">
<path d="M0 -15H143V87H0V-15Z" fill="white"/>
</mask>
<g mask="url(#mask36_1150_21782)">
<path d="M83.5244 26.7916C83.5244 26.7916 84.6199 25.9855 85.3122 27.0225C86.0036 28.0595 84.5035 30.2477 85.1379 30.8237C85.1379 30.8237 83.696 30.6498 84.2158 29.2104C84.7351 27.7711 85.0818 26.6193 83.4092 27.2523" fill="#C4B097"/>
</g>
<mask id="mask37_1150_21782" style="mask-type:luminance" maskUnits="userSpaceOnUse" x="0" y="-15" width="143" height="102">
<path d="M0 -15H143V87H0V-15Z" fill="white"/>
</mask>
<g mask="url(#mask37_1150_21782)">
<path d="M57.7917 42.8642C57.8569 43.0147 57.6617 44.8719 58.0936 46.8159C58.0723 46.8159 57.704 47.5296 58.547 47.788C59.3908 48.0484 60.7964 48.0042 59.9531 47.3134C59.1099 46.6221 58.7637 46.7518 59.0239 45.6508C59.2835 44.5486 59.4135 43.3822 59.4138 42.7784C59.6084 42.7993 60.3007 42.7996 60.1273 42.1307C59.9554 41.4606 59.9333 41.8927 59.8263 39.3877C59.7191 36.8828 59.8924 35.7381 59.4169 34.2475C59.3959 34.2041 60.2397 33.6213 60.564 33.557L60.5419 33.4706C60.5419 33.4706 61.5151 33.2765 62.316 32.5427C63.1162 31.8085 63.3982 30.5344 63.3982 30.5344C63.3982 30.5344 63.9384 30.599 64.0468 29.3685C64.3075 29.001 64.3935 28.6559 64.3078 28.44C64.242 28.44 63.874 29.001 63.874 29.001C63.874 29.001 64.1345 28.2887 63.9827 28.0946C63.8533 28.0295 63.8743 28.2454 63.8743 28.2454C63.8743 28.2454 63.7662 27.7487 63.5724 27.7484C63.3775 27.7484 63.3341 28.0943 63.3341 28.0943C63.3341 28.0943 63.2688 27.7915 63.075 27.9212C62.8804 28.0504 62.9879 28.871 62.9879 28.871C62.9879 28.871 62.707 28.4825 62.404 28.504C62.1015 28.5256 62.6418 29.4113 62.7496 29.7782C62.8577 30.1451 62.295 30.1882 61.603 31.549C61.1264 31.5269 60.3915 31.7641 60.0025 32.023L59.9591 31.7638C59.9591 31.7638 59.0506 32.1956 57.8825 32.0007C57.4288 31.9142 57.6231 31.3957 57.6231 31.3957C57.6231 31.3957 58.8347 31.0725 59.2245 29.6258C59.3979 29.1075 59.3982 28.5029 58.9655 28.1567C58.5112 27.7898 58.5336 27.2931 58.5549 26.8831C58.5986 26.9689 58.52 25.227 56.2706 25.4568C55.3482 25.3984 52.2904 26.319 54.2502 30.1785C54.0198 30.1207 53.7888 30.4661 54.0771 30.8121C54.3654 31.1572 54.8985 31.3303 55.3527 30.9634C55.5045 31.1577 56.0016 31.3309 56.3262 31.3309C56.4772 31.3527 56.6281 31.8275 56.2175 32.1729C55.8711 32.2378 54.3571 33.6842 54.0967 34.2022L54.2485 34.2889C54.2485 34.2889 53.4478 35.433 53.2301 38.1547C53.2094 38.3258 52.5815 38.8879 53.0355 39.1899C53.4679 39.4716 53.6844 39.7308 53.8146 39.3636C54.0518 39.4934 54.3761 39.2129 54.3114 38.5644C54.1392 38.1331 54.0742 38.2623 54.2036 37.7875C54.3339 37.3123 55.048 35.6282 55.1998 35.3474L55.2642 35.4987L55.4379 35.3259C55.4379 35.3259 55.2446 36.9018 54.9192 38.5159C54.9192 38.5159 54.3126 39.8838 54.2618 41.3427C54.2865 41.6756 54.1543 41.9207 54.7646 42.1499C54.7646 42.1499 54.0498 44.828 54.0493 46.275C53.7899 46.6201 52.8378 47.5911 53.378 48.0461C53.5508 48.1099 53.8972 47.9809 54.2218 47.6792C54.5464 47.3749 55.109 46.8793 54.8707 46.5983C55.2177 45.7347 55.91 44.4826 56.278 42.7772L56.6539 42.7517L57.1584 41.1424L57.2586 42.7019L57.7917 42.8642Z" fill="#C4B097"/>
</g>
<mask id="mask38_1150_21782" style="mask-type:luminance" maskUnits="userSpaceOnUse" x="0" y="-15" width="143" height="102">
<path d="M0 -15H143V87H0V-15Z" fill="white"/>
</mask>
<g mask="url(#mask38_1150_21782)">
<path d="M60.0022 39.0223C59.9926 39.1702 59.9078 39.286 59.8121 39.2795L54.93 38.9596C54.8347 38.9528 54.7654 38.8279 54.7754 38.6791C54.7853 38.5307 54.8701 38.4151 54.9655 38.4219L59.8476 38.7423C59.9427 38.7483 60.0122 38.8732 60.0022 39.0223Z" fill="#C4B097"/>
</g>
<mask id="mask39_1150_21782" style="mask-type:luminance" maskUnits="userSpaceOnUse" x="0" y="-15" width="143" height="102">
<path d="M0 -15H143V87H0V-15Z" fill="white"/>
</mask>
<g mask="url(#mask39_1150_21782)">
<path d="M54.7822 29.9986C54.7819 30.4361 54.4267 30.7905 53.9886 30.7905C53.5503 30.7902 53.1953 30.4355 53.1953 29.998C53.1956 29.5603 53.5508 29.2056 53.9892 29.2058C54.4273 29.2061 54.7825 29.5609 54.7822 29.9986Z" fill="#C4B097"/>
</g>
<mask id="mask40_1150_21782" style="mask-type:luminance" maskUnits="userSpaceOnUse" x="0" y="-15" width="143" height="102">
<path d="M0 -15H143V87H0V-15Z" fill="white"/>
</mask>
<g mask="url(#mask40_1150_21782)">
<path d="M54.4424 28.8284C54.4421 29.2662 54.0866 29.6206 53.6485 29.6206C53.2104 29.6203 52.8555 29.2656 52.8555 28.8278C52.8558 28.3904 53.211 28.0356 53.6491 28.0359C54.0871 28.0362 54.4427 28.3909 54.4424 28.8284Z" fill="#C4B097"/>
</g>
<mask id="mask41_1150_21782" style="mask-type:luminance" maskUnits="userSpaceOnUse" x="0" y="-15" width="143" height="102">
<path d="M0 -15H143V87H0V-15Z" fill="white"/>
</mask>
<g mask="url(#mask41_1150_21782)">
<path d="M54.6321 27.5454C54.6318 27.9834 54.2763 28.3379 53.8382 28.3379C53.3999 28.3376 53.0449 27.9829 53.0449 27.5448C53.0452 27.1074 53.4004 26.7526 53.8388 26.7529C54.2769 26.7532 54.6324 27.1079 54.6321 27.5454Z" fill="#C4B097"/>
</g>
<mask id="mask42_1150_21782" style="mask-type:luminance" maskUnits="userSpaceOnUse" x="0" y="-15" width="143" height="102">
<path d="M0 -15H143V87H0V-15Z" fill="white"/>
</mask>
<g mask="url(#mask42_1150_21782)">
<path d="M53.9521 26.9044C53.9519 27.3418 53.5966 27.6963 53.1583 27.6963C52.7202 27.696 52.3652 27.3413 52.3652 26.9038C52.3655 26.4663 52.7207 26.1116 53.1588 26.1119C53.5972 26.1122 53.9524 26.4669 53.9521 26.9044Z" fill="#C4B097"/>
</g>
<mask id="mask43_1150_21782" style="mask-type:luminance" maskUnits="userSpaceOnUse" x="0" y="-15" width="143" height="102">
<path d="M0 -15H143V87H0V-15Z" fill="white"/>
</mask>
<g mask="url(#mask43_1150_21782)">
<path d="M55.6904 25.6975C55.6901 26.1353 55.3346 26.4897 54.8965 26.4897C54.4585 26.4895 54.1035 26.1347 54.1035 25.697C54.1038 25.2595 54.459 24.9048 54.8971 24.9051C55.3352 24.9053 55.6907 25.2601 55.6904 25.6975Z" fill="#C4B097"/>
</g>
<mask id="mask44_1150_21782" style="mask-type:luminance" maskUnits="userSpaceOnUse" x="0" y="-15" width="143" height="102">
<path d="M0 -15H143V87H0V-15Z" fill="white"/>
</mask>
<g mask="url(#mask44_1150_21782)">
<path d="M53.9895 27.9983C53.9892 28.4361 53.6337 28.7905 53.1957 28.7905C52.7573 28.7902 52.4023 28.4355 52.4023 27.9978C52.4026 27.5603 52.7579 27.2056 53.1962 27.2058C53.6343 27.2061 53.9898 27.5609 53.9895 27.9983Z" fill="#C4B097"/>
</g>
<mask id="mask45_1150_21782" style="mask-type:luminance" maskUnits="userSpaceOnUse" x="0" y="-15" width="143" height="102">
<path d="M0 -15H143V87H0V-15Z" fill="white"/>
</mask>
<g mask="url(#mask45_1150_21782)">
<path d="M54.6709 25.961C54.6706 26.3985 54.3154 26.7529 53.877 26.7529C53.4389 26.7526 53.084 26.3979 53.084 25.9604C53.0843 25.5227 53.4395 25.168 53.8776 25.1682C54.3159 25.1685 54.6712 25.5233 54.6709 25.961Z" fill="#C4B097"/>
</g>
<mask id="mask46_1150_21782" style="mask-type:luminance" maskUnits="userSpaceOnUse" x="0" y="-15" width="143" height="102">
<path d="M0 -15H143V87H0V-15Z" fill="white"/>
</mask>
<g mask="url(#mask46_1150_21782)">
<path d="M56.8242 25.283C56.8239 25.7207 56.4687 26.0752 56.0306 26.0752C55.5925 26.0749 55.2373 25.7202 55.2373 25.2824C55.2376 24.8447 55.5931 24.4902 56.0312 24.4902C56.4693 24.4905 56.8245 24.8452 56.8242 25.283Z" fill="#C4B097"/>
</g>
<mask id="mask47_1150_21782" style="mask-type:luminance" maskUnits="userSpaceOnUse" x="0" y="-15" width="143" height="102">
<path d="M0 -15H143V87H0V-15Z" fill="white"/>
</mask>
<g mask="url(#mask47_1150_21782)">
<path d="M57.958 25.359C57.9577 25.7964 57.6025 26.1509 57.1644 26.1509C56.726 26.1506 56.3711 25.7959 56.3711 25.3584C56.3714 24.9206 56.7266 24.5662 57.165 24.5662C57.603 24.5665 57.9583 24.9212 57.958 25.359Z" fill="#C4B097"/>
</g>
<mask id="mask48_1150_21782" style="mask-type:luminance" maskUnits="userSpaceOnUse" x="0" y="-15" width="143" height="102">
<path d="M0 -15H143V87H0V-15Z" fill="white"/>
</mask>
<g mask="url(#mask48_1150_21782)">
<path d="M58.8271 25.7742C58.8269 26.212 58.4713 26.5664 58.0333 26.5664C57.5952 26.5661 57.2402 26.2114 57.2402 25.7736C57.2405 25.3362 57.5957 24.9814 58.0338 24.9817C58.4719 24.982 58.8274 25.3367 58.8271 25.7742Z" fill="#C4B097"/>
</g>
<mask id="mask49_1150_21782" style="mask-type:luminance" maskUnits="userSpaceOnUse" x="0" y="-15" width="143" height="102">
<path d="M0 -15H143V87H0V-15Z" fill="white"/>
</mask>
<g mask="url(#mask49_1150_21782)">
<path d="M58.9016 26.6422C58.9014 27.0796 58.5458 27.4341 58.1078 27.4341C57.6694 27.4338 57.3145 27.0791 57.3145 26.6416C57.3147 26.2036 57.67 25.8488 58.1083 25.8491C58.5464 25.8494 58.9019 26.2041 58.9016 26.6422Z" fill="#C4B097"/>
</g>
<mask id="mask50_1150_21782" style="mask-type:luminance" maskUnits="userSpaceOnUse" x="0" y="-15" width="143" height="102">
<path d="M0 -15H143V87H0V-15Z" fill="white"/>
</mask>
<g mask="url(#mask50_1150_21782)">
<path d="M86.8563 41.6507L87.0674 43.4841C87.1619 43.5076 87.1375 44.9181 87.4433 45.8817C87.4666 45.9993 87.1843 46.6342 87.1131 46.845C87.0424 47.0334 87.1604 47.3156 87.5369 47.2692C87.9132 47.2218 87.9606 47.1045 88.1019 46.7991C88.2431 46.4937 88.3609 46.235 88.5022 46.2115C88.6435 46.188 88.5257 45.7414 88.5257 45.7414C88.5257 45.7414 88.7454 44.6656 88.8787 44.2007C89.0112 44.6659 89.2297 45.7417 89.2297 45.7417C89.2297 45.7417 89.1116 46.1882 89.2529 46.2118C89.394 46.2353 89.512 46.494 89.6527 46.7997C89.7937 47.1051 89.8411 47.2224 90.2176 47.2703C90.5944 47.3168 90.7122 47.0348 90.6418 46.8464C90.5709 46.6356 90.2886 46.0001 90.3124 45.8828C90.6188 44.9192 90.5958 43.509 90.6898 43.4855L90.9023 41.6521C90.9497 41.8405 91.1372 43.4385 91.1372 43.4385C91.1372 43.4385 90.925 43.721 90.925 43.9559C90.9247 44.1907 90.9721 44.191 91.1369 44.0972C91.3015 44.0026 91.2776 44.4967 91.2776 44.4967C91.7015 44.2145 91.5373 44.0264 91.5608 43.6504C91.6556 42.5457 91.5617 41.6053 91.5617 41.6053L91.8201 41.441L91.7736 41.2764C91.539 39.3018 89.7969 38.7607 89.6326 38.7607C89.4677 38.7604 89.3497 38.4779 89.468 38.29C90.3856 38.0552 90.8807 36.9278 90.8807 36.9278C90.8807 36.9278 90.9985 36.9748 91.2107 36.6456C91.4221 36.3166 91.4459 36.0582 91.2342 35.9877C91.7994 34.6478 91.047 33.6369 91.047 33.6369C91.2584 33.9188 91.5645 34.3656 91.5645 34.3656C91.2822 32.767 89.729 32.6254 89.729 32.6254C89.729 32.6254 88.7405 31.9666 87.7517 32.4132L87.9166 32.5072C87.9166 32.5072 85.9154 33.1884 86.1733 35.3507C86.1733 35.3507 86.2074 34.9949 86.3362 34.6954C86.2939 35.0618 86.3251 35.5018 86.5286 35.9857C86.3169 36.0563 86.3405 36.3146 86.5521 36.6439C86.7638 36.9731 86.8815 36.9261 86.8815 36.9261C86.8815 36.9261 87.3755 38.054 88.2937 38.2898C88.4114 38.4776 88.2934 38.7601 88.1282 38.7601C87.6031 38.9904 87.4138 39.3109 86.4284 39.1661C86.3527 39.2919 86.3527 39.4679 86.3527 39.4679L86.1509 40.4238C86.1509 40.4238 86.6557 40.6137 86.8563 41.6507Z" fill="#C4B097"/>
</g>
<mask id="mask51_1150_21782" style="mask-type:luminance" maskUnits="userSpaceOnUse" x="0" y="-15" width="143" height="102">
<path d="M0 -15H143V87H0V-15Z" fill="white"/>
</mask>
<g mask="url(#mask51_1150_21782)">
<path d="M86.5296 39.2921C86.3409 39.291 86.0518 39.3859 85.9127 39.4335C85.2395 38.713 84.8828 38.7869 84.8839 38.5396C84.8845 38.2931 85.061 37.6474 84.8698 37.6879C84.6777 37.729 84.5733 38.0202 84.5733 38.0202C84.5733 38.0202 84.4924 37.4921 84.3491 37.4462C84.205 37.4011 84.2189 37.6003 84.2189 37.6003C84.2189 37.6003 84.1301 37.3935 84.0092 37.4283C83.8892 37.4629 83.9105 37.7904 83.9105 37.7904C83.9105 37.7904 83.8855 37.653 83.8174 37.7168C83.7575 37.8644 84.0469 38.2596 84.0469 38.2596C84.0469 38.2596 83.7181 37.9777 83.677 37.9888C83.6628 38.1384 83.778 38.337 84.0061 38.518C84.2938 39.2624 84.6175 39.1249 84.6175 39.1249C84.6175 39.1249 85.0207 39.8644 85.6486 40.1767C85.8872 40.2948 86.4362 40.4257 86.6422 40.4614L86.5296 39.2921Z" fill="#C4B097"/>
</g>
<mask id="mask52_1150_21782" style="mask-type:luminance" maskUnits="userSpaceOnUse" x="0" y="-15" width="143" height="102">
<path d="M0 -15H143V87H0V-15Z" fill="white"/>
</mask>
<g mask="url(#mask52_1150_21782)">
<path d="M51.7579 34.6825C51.8002 35.0488 51.7681 35.4888 51.5644 35.9728C51.776 36.0433 51.7522 36.3017 51.5405 36.6307C51.3283 36.9599 51.2106 36.9126 51.2106 36.9126C51.2106 36.9126 50.716 38.0403 49.7979 38.2751C49.6798 38.463 49.7976 38.7455 49.9624 38.7455C50.4879 38.9767 50.6766 39.2971 51.6623 39.1529C51.7377 39.279 51.7377 39.4549 51.7377 39.4549L51.9386 40.4109C51.9386 40.4109 51.4339 40.6002 51.2327 41.6372L51.0199 43.4706C50.9257 43.4941 50.9487 44.9043 50.6423 45.8679C50.6187 45.9852 50.9007 46.6207 50.9717 46.8315C51.0423 47.0199 50.9243 47.3019 50.5475 47.2551C50.1713 47.2075 50.1236 47.0902 49.9832 46.7848C49.8419 46.4791 49.7241 46.2204 49.5831 46.1969C49.4418 46.1733 49.5598 45.7268 49.5598 45.7268C49.5598 45.7268 49.3411 44.6507 49.2086 44.1858C49.0752 44.6507 48.8559 45.7265 48.8559 45.7265C48.8559 45.7265 48.9736 46.1731 48.8323 46.1966C48.691 46.2201 48.573 46.4785 48.432 46.7839C48.2907 47.0894 48.2433 47.2067 47.8668 47.2543C47.4903 47.3004 47.3725 47.0185 47.4432 46.8301C47.5141 46.6193 47.797 45.9841 47.7732 45.8668C47.4676 44.9029 47.4917 43.4927 47.3975 43.4692L47.1864 41.6358C47.139 41.8239 46.9504 43.4219 46.9504 43.4219C46.9504 43.4219 47.162 43.7047 47.162 43.9395C47.162 44.1744 47.1146 44.1744 46.9501 44.0804C46.7855 43.9857 46.8088 44.4799 46.8088 44.4799C46.3852 44.1977 46.5497 44.0095 46.5262 43.6335C46.4326 42.5285 46.527 41.5884 46.527 41.5884L46.2686 41.4238L46.3154 41.2595C46.5514 39.2849 48.2938 38.7449 48.4587 38.7449C48.6235 38.7452 48.7413 38.4627 48.6235 38.2749C47.7056 38.0391 47.2117 36.9112 47.2117 36.9112C47.2117 36.9112 47.0936 36.9582 46.882 36.6287C46.6703 36.2997 46.6468 36.0413 46.8587 35.9708C46.2944 34.6306 47.0482 33.6203 47.0482 33.6203C47.0482 33.6203 47.5209 33.0578 48.5722 32.9386C49.6801 32.8139 51.4188 33.0544 51.7579 34.6825Z" fill="#C4B097"/>
</g>
<mask id="mask53_1150_21782" style="mask-type:luminance" maskUnits="userSpaceOnUse" x="0" y="-15" width="143" height="102">
<path d="M0 -15H143V87H0V-15Z" fill="white"/>
</mask>
<g mask="url(#mask53_1150_21782)">
<path d="M51.562 39.2789C51.7504 39.2778 52.0393 39.3733 52.1786 39.4209C52.8527 38.7009 53.2088 38.7752 53.2079 38.5278C53.2074 38.2813 53.0315 37.6353 53.223 37.6758C53.4148 37.7172 53.5189 38.0085 53.5189 38.0085C53.5189 38.0085 53.6003 37.4803 53.7439 37.4347C53.888 37.3897 53.8736 37.5888 53.8736 37.5888C53.8736 37.5888 53.9629 37.3823 54.0835 37.4171C54.2035 37.4517 54.182 37.7792 54.182 37.7792C54.182 37.7792 54.207 37.6418 54.2753 37.7056C54.3349 37.8535 54.0449 38.2484 54.0449 38.2484C54.0449 38.2484 54.3744 37.9665 54.4152 37.9779C54.4294 38.1272 54.3142 38.3258 54.0861 38.5068C53.7975 39.2509 53.4741 39.1132 53.4741 39.1132C53.4741 39.1132 53.0703 39.8527 52.4419 40.1641C52.2032 40.2822 51.6542 40.4125 51.4482 40.4482L51.562 39.2789Z" fill="#C4B097"/>
</g>
<mask id="mask54_1150_21782" style="mask-type:luminance" maskUnits="userSpaceOnUse" x="0" y="-15" width="143" height="102">
<path d="M0 -15H143V87H0V-15Z" fill="white"/>
</mask>
<g mask="url(#mask54_1150_21782)">
<path d="M46.8588 33.1396C46.8588 33.487 46.5768 33.7681 46.2289 33.7681C45.8814 33.7678 45.5996 33.4864 45.5996 33.1391C45.5999 32.792 45.8816 32.5106 46.2295 32.5106C46.5773 32.5109 46.8588 32.7923 46.8588 33.1396Z" fill="#C4B097"/>
</g>
<mask id="mask55_1150_21782" style="mask-type:luminance" maskUnits="userSpaceOnUse" x="0" y="-15" width="143" height="102">
<path d="M0 -15H143V87H0V-15Z" fill="white"/>
</mask>
<g mask="url(#mask55_1150_21782)">
<path d="M46.6823 33.8945C46.6823 34.2416 46.4 34.5229 46.0524 34.5229C45.7046 34.5227 45.4229 34.2413 45.4229 33.8939C45.4231 33.5466 45.7052 33.2652 46.053 33.2652C46.4006 33.2655 46.6823 33.5469 46.6823 33.8945Z" fill="#C4B097"/>
</g>
<mask id="mask56_1150_21782" style="mask-type:luminance" maskUnits="userSpaceOnUse" x="0" y="-15" width="143" height="102">
<path d="M0 -15H143V87H0V-15Z" fill="white"/>
</mask>
<g mask="url(#mask56_1150_21782)">
<path d="M47.186 34.1711C47.186 34.5185 46.9039 34.7998 46.5561 34.7998C46.2085 34.7995 45.9265 34.5179 45.9268 34.1705C45.9268 33.8237 46.2088 33.5421 46.5566 33.5421C46.9045 33.5424 47.186 33.824 47.186 34.1711Z" fill="#C4B097"/>
</g>
<mask id="mask57_1150_21782" style="mask-type:luminance" maskUnits="userSpaceOnUse" x="0" y="-15" width="143" height="102">
<path d="M0 -15H143V87H0V-15Z" fill="white"/>
</mask>
<g mask="url(#mask57_1150_21782)">
<path d="M47.6147 33.0644C47.6147 33.4118 47.3324 33.6929 46.9845 33.6929C46.6372 33.6926 46.3552 33.4112 46.3555 33.0639C46.3555 32.7165 46.6378 32.4352 46.9851 32.4352C47.3329 32.4354 47.6147 32.7168 47.6147 33.0644Z" fill="#C4B097"/>
</g>
<mask id="mask58_1150_21782" style="mask-type:luminance" maskUnits="userSpaceOnUse" x="0" y="-15" width="143" height="102">
<path d="M0 -15H143V87H0V-15Z" fill="white"/>
</mask>
<g mask="url(#mask58_1150_21782)">
<path d="M51.3174 33.141C51.3174 33.4884 51.5991 33.7697 51.9467 33.77C52.2945 33.77 52.5766 33.4887 52.5769 33.1416C52.5769 32.7942 52.2948 32.5129 51.9473 32.5126C51.5997 32.5126 51.3174 32.7937 51.3174 33.141Z" fill="#C4B097"/>
</g>
<mask id="mask59_1150_21782" style="mask-type:luminance" maskUnits="userSpaceOnUse" x="0" y="-15" width="143" height="102">
<path d="M0 -15H143V87H0V-15Z" fill="white"/>
</mask>
<g mask="url(#mask59_1150_21782)">
<path d="M51.4941 33.8959C51.4941 34.2433 51.7759 34.5246 52.1237 34.5249C52.4713 34.5249 52.7533 34.2436 52.7533 33.8965C52.7536 33.5488 52.4719 33.2675 52.1243 33.2672C51.7765 33.2672 51.4941 33.5483 51.4941 33.8959Z" fill="#C4B097"/>
</g>
<mask id="mask60_1150_21782" style="mask-type:luminance" maskUnits="userSpaceOnUse" x="0" y="-15" width="143" height="102">
<path d="M0 -15H143V87H0V-15Z" fill="white"/>
</mask>
<g mask="url(#mask60_1150_21782)">
<path d="M50.9902 34.1725C50.9902 34.5198 51.2717 34.8015 51.6198 34.8018C51.9674 34.8018 52.2494 34.5201 52.2497 34.173C52.2497 33.826 51.9677 33.5443 51.6204 33.544C51.2723 33.544 50.9902 33.8254 50.9902 34.1725Z" fill="#C4B097"/>
</g>
<mask id="mask61_1150_21782" style="mask-type:luminance" maskUnits="userSpaceOnUse" x="0" y="-15" width="143" height="102">
<path d="M0 -15H143V87H0V-15Z" fill="white"/>
</mask>
<g mask="url(#mask61_1150_21782)">
<path d="M50.5625 33.0658C50.5625 33.4132 50.844 33.6945 51.1918 33.6948C51.5397 33.6948 51.8217 33.4135 51.822 33.0664C51.822 32.7187 51.54 32.4374 51.1924 32.4371C50.8445 32.4371 50.5625 32.7182 50.5625 33.0658Z" fill="#C4B097"/>
</g>
<mask id="mask62_1150_21782" style="mask-type:luminance" maskUnits="userSpaceOnUse" x="0" y="-15" width="143" height="102">
<path d="M0 -15H143V87H0V-15Z" fill="white"/>
</mask>
<g mask="url(#mask62_1150_21782)">
<path d="M47.5645 33.2657C47.5645 33.2657 48.5723 32.4109 49.4538 32.9897C49.706 32.7883 50.6631 32.7384 50.965 33.3926C51.2668 34.0468 50.486 34.2729 50.486 34.2729L48.7987 33.87" fill="#C4B097"/>
</g>
<mask id="mask63_1150_21782" style="mask-type:luminance" maskUnits="userSpaceOnUse" x="0" y="-15" width="143" height="102">
<path d="M0 -15H143V87H0V-15Z" fill="white"/>
</mask>
<g mask="url(#mask63_1150_21782)">
<path d="M50.6218 40.2215L51.9383 40.411C50.8746 41.5047 51.4895 43.6931 51.376 44.259C51.2625 44.8251 49.6001 44.7109 48.4286 44.7106C47.2574 44.71 47.2199 44.0688 47.2199 44.0688C47.2199 44.0688 47.107 42.6726 47.2965 41.2766" fill="#C4B097"/>
</g>
<mask id="mask64_1150_21782" style="mask-type:luminance" maskUnits="userSpaceOnUse" x="0" y="-15" width="143" height="102">
<path d="M0 -15H143V87H0V-15Z" fill="white"/>
</mask>
<g mask="url(#mask64_1150_21782)">
<path d="M75.3238 29.1762C75.0307 28.297 74.9203 27.5343 74.9203 27.5343C74.9203 27.5343 73.9576 23.6826 73.5391 21.0037C73.1209 18.3242 70.9413 17.8213 70.3128 17.6955C69.6841 17.5694 69.6841 17.2348 69.6427 16.8161C71.6129 16.6495 71.9902 15.645 72.2839 15.3937C72.8707 15.687 73.3323 15.2271 73.5414 14.7664C73.7511 14.3057 73.8359 13.6784 73.2903 14.013C74.8437 9.2417 72.3716 7.23174 70.8624 6.60331C69.9769 6.23441 69.324 6.19757 68.9342 6.22987C68.5443 6.19728 67.8918 6.23355 67.006 6.60189C65.4965 7.22919 63.0227 9.23717 64.5716 14.0096C64.0271 13.6747 64.1111 14.3023 64.3202 14.763C64.5293 15.2237 64.9909 15.6841 65.5774 15.3912C65.8708 15.6425 66.2478 16.6475 68.2178 16.8155C68.1758 17.2343 68.1758 17.5689 67.5468 17.6944C66.9177 17.8196 64.7381 18.3211 64.3176 21C63.8974 23.679 62.9319 27.5297 62.9319 27.5297C62.9319 27.5297 62.6893 28.5769 62.3956 29.4561C62.1442 29.7485 61.6835 29.8324 61.5986 31.5066C61.5986 31.6741 62.0591 32.5113 63.0655 32.177C63.4429 31.884 64.7841 31.4664 64.1976 30.6705C64.0302 30.3353 63.791 29.7576 63.9888 29.1215C64.4427 27.6629 64.5432 27.3104 64.5432 27.3104C64.5432 27.3104 65.4378 23.3234 65.648 22.4343C65.648 22.4343 66.0563 23.3341 66.0977 24.8199C66.1395 26.3063 66.0759 26.7041 65.9082 27.2691C65.7402 27.834 64.2722 30.4498 64.9614 37.1999C66.0614 37.2005 66.0299 37.2314 66.0299 37.2314C66.0299 37.2314 66.0921 39.806 66.9396 43.3854C67.0965 43.95 66.9702 44.6096 65.9956 45.1743C65.021 45.7393 64.2663 45.9589 64.9262 47.0262C65.2715 47.3407 65.7743 47.9686 66.9694 47.1837C67.6299 46.776 67.913 46.5561 68.4791 46.2431C69.0448 45.9286 68.794 45.0497 68.5739 44.6102C68.3852 44.328 68.2283 44.9236 68.2913 43.5114C68.3548 42.099 68.7018 38.7401 68.4195 37.358H68.5452L69.2996 37.3583H69.4253C69.1419 38.7401 69.4866 42.0993 69.5488 43.512C69.6115 44.9241 69.4546 44.3286 69.2656 44.6105C69.0451 45.0499 68.7935 45.9286 69.3592 46.2433C69.925 46.5567 70.2081 46.7769 70.8678 47.1851C72.0617 47.9711 72.5657 47.3432 72.9112 47.029C73.5723 45.9626 72.8179 45.7421 71.843 45.1766C70.8689 44.6111 70.7433 43.9515 70.9007 43.3868C71.7511 39.8083 71.8146 37.2336 71.8146 37.2336C71.8146 37.2336 71.7831 37.2025 72.8837 37.203C73.5783 30.4532 72.1114 27.8363 71.944 27.2713C71.7772 26.7061 71.7142 26.3083 71.7567 24.8222C71.799 23.3364 72.2082 22.4368 72.2082 22.4368C72.4178 23.3262 73.5366 28.0361 73.5366 28.0361C73.5366 28.0361 73.637 28.1814 73.7309 28.8404C73.8251 29.5 73.6887 30.0545 73.5204 30.3894C72.9337 31.1847 74.2746 31.6035 74.6519 31.8968C75.658 32.2319 76.1191 31.395 76.1191 31.2275C76.0354 29.553 75.5749 29.4692 75.3238 29.1762Z" fill="#FF999A"/>
</g>
<mask id="mask65_1150_21782" style="mask-type:luminance" maskUnits="userSpaceOnUse" x="0" y="-15" width="143" height="102">
<path d="M0 -15H143V87H0V-15Z" fill="white"/>
</mask>
<g mask="url(#mask65_1150_21782)">
<path d="M72.2202 18.5542C73.8542 19.6643 73.9371 22.8668 73.9371 22.8668L72.3859 23.7661C72.3859 23.7661 72.1975 22.4894 71.4434 21.3586" fill="#FF999A"/>
</g>
<mask id="mask66_1150_21782" style="mask-type:luminance" maskUnits="userSpaceOnUse" x="0" y="-15" width="143" height="102">
<path d="M0 -15H143V87H0V-15Z" fill="white"/>
</mask>
<g mask="url(#mask66_1150_21782)">
<path d="M65.619 18.5516C63.9836 19.6605 63.8984 22.8628 63.8984 22.8628L65.4487 23.7632C65.4487 23.7632 65.638 22.4868 66.393 21.3566" fill="#FF999A"/>
</g>
</g>
<defs>
<clipPath id="clip0_1150_21782">
<rect width="143" height="67" fill="white"/>
</clipPath>
</defs>
</svg>
