<svg width="13" height="13" viewBox="0 0 13 13" fill="none" xmlns="http://www.w3.org/2000/svg">
<path d="M6.02562 0.3207C6.19734 -0.106903 6.80267 -0.106903 6.97438 0.320699L8.36355 3.78001C8.43667 3.9621 8.60757 4.08627 8.80334 4.09954L12.5226 4.35173C12.9824 4.3829 13.1694 4.95861 12.8158 5.25405L9.95508 7.64421C9.80449 7.77003 9.73922 7.97093 9.78709 8.16122L10.6966 11.7764C10.809 12.2233 10.3193 12.5791 9.929 12.3341L6.77181 10.352C6.60563 10.2476 6.39438 10.2476 6.22819 10.352L3.071 12.3341C2.68075 12.5791 2.19102 12.2233 2.30344 11.7764L3.21292 8.16123C3.26079 7.97093 3.19551 7.77003 3.04493 7.64421L0.184204 5.25405C-0.169408 4.95861 0.0176493 4.3829 0.477386 4.35173L4.19666 4.09954C4.39244 4.08627 4.56334 3.9621 4.63646 3.78001L6.02562 0.3207Z" fill="#FAAF18"/>
</svg>
