<svg width="167" height="173" viewBox="0 0 167 173" fill="none" xmlns="http://www.w3.org/2000/svg">
<path d="M83.5 172.219C129.617 172.219 167 133.667 167 86.1094C167 38.5515 129.617 -1.86334e-05 83.5 -2.27963e-05C37.3833 -2.69592e-05 -3.94173e-06 38.5515 -7.96826e-06 86.1094C-1.19948e-05 133.667 37.3833 172.219 83.5 172.219ZM57.6585 36.1622C84.4087 36.1622 106.092 58.5232 106.092 86.1094C106.092 113.695 84.4087 136.056 57.6585 136.056C30.9083 136.056 9.22497 113.695 9.22497 86.1094C9.22497 58.5232 30.9084 36.1622 57.6585 36.1622Z" fill="white" fill-opacity="0.25"/>
</svg>
