<svg width="45" height="4" viewBox="0 0 45 4" fill="none" xmlns="http://www.w3.org/2000/svg">
<path d="M45 1.01093C43.2995 1.01093 42.4611 1.57416 41.5737 2.16988C40.6451 2.79377 39.5923 3.50142 37.5841 3.50142C35.576 3.50142 34.5232 2.79377 33.5946 2.16988C32.7064 1.57416 31.8681 1.01454 30.1682 1.01454C28.4684 1.01454 27.6294 1.57777 26.7419 2.17349C25.8133 2.79738 24.7605 3.50503 22.7524 3.50503C20.7442 3.50503 19.6914 2.79738 18.7628 2.17349C17.8754 1.57777 17.037 1.01815 15.3372 1.01815C13.6374 1.01815 12.7983 1.57416 11.9145 2.16988C10.9852 2.79377 9.93236 3.50142 7.92495 3.50142C5.91754 3.50142 4.86401 2.79377 3.93467 2.16988C3.04361 1.57416 2.20527 1.01093 0.505464 1.01093C0.371406 1.01093 0.24284 0.957674 0.148047 0.862881C0.0532541 0.768088 0 0.639521 0 0.505464C0 0.371406 0.0532541 0.24284 0.148047 0.148047C0.24284 0.0532541 0.371406 0 0.505464 0C2.5136 0 3.56641 0.706927 4.49502 1.33081C5.38247 1.92726 6.22082 2.49049 7.92134 2.49049C9.62187 2.49049 10.4595 1.92726 11.3469 1.33081C12.2755 0.706927 13.3291 0 15.3372 0C17.3454 0 18.3974 0.706927 19.3268 1.33081C20.2142 1.92726 21.0526 2.49049 22.7524 2.49049C24.4522 2.49049 25.2905 1.92726 26.1787 1.33081C27.1073 0.706927 28.1616 0 30.1682 0C32.1749 0 33.2292 0.706927 34.1549 1.33081C35.0424 1.92726 35.8814 2.49049 37.5812 2.49049C39.281 2.49049 40.1194 1.92726 41.0076 1.33081C41.9391 0.706927 42.9919 0 45 0" fill="#FF999A"/>
</svg>
