<svg width="42" height="4" viewBox="0 0 42 4" fill="none" xmlns="http://www.w3.org/2000/svg">
<path d="M42 1.01354C40.4129 1.01354 39.6304 1.57822 38.8021 2.17549C37.9354 2.80098 36.9528 3.51046 35.0786 3.51046C33.2043 3.51046 32.2217 2.80098 31.355 2.17549C30.526 1.57822 29.7435 1.01716 28.1571 1.01716C26.5706 1.01716 25.7874 1.58184 24.9592 2.17911C24.0925 2.8046 23.1098 3.51408 21.2356 3.51408C19.3613 3.51408 18.3787 2.8046 17.512 2.17911C16.6837 1.58184 15.9012 1.02078 14.3148 1.02078C12.7283 1.02078 11.9451 1.57822 11.1202 2.17549C10.2528 2.80098 9.27022 3.51046 7.39663 3.51046C5.52304 3.51046 4.53974 2.80098 3.67237 2.17549C2.84071 1.57822 2.05825 1.01354 0.471767 1.01354C0.346646 1.01354 0.226651 0.960146 0.138177 0.865108C0.0497039 0.770071 0 0.641172 0 0.506769C0 0.372365 0.0497039 0.243467 0.138177 0.148429C0.226651 0.0533916 0.346646 0 0.471767 0C2.34603 0 3.32865 0.708752 4.19535 1.33425C5.02364 1.93224 5.8061 2.49692 7.39326 2.49692C8.98042 2.49692 9.7622 1.93224 10.5905 1.33425C11.4572 0.708752 12.4405 0 14.3148 0C16.189 0 17.171 0.708752 18.0383 1.33425C18.8666 1.93224 19.6491 2.49692 21.2356 2.49692C22.8221 2.49692 23.6045 1.93224 24.4335 1.33425C25.3002 0.708752 26.2841 0 28.1571 0C30.03 0 31.0139 0.708752 31.878 1.33425C32.7062 1.93224 33.4894 2.49692 35.0759 2.49692C36.6623 2.49692 37.4448 1.93224 38.2738 1.33425C39.1432 0.708752 40.1258 0 42 0" fill="#FF999A"/>
</svg>
