<svg width="124" height="102" viewBox="0 0 124 102" fill="none" xmlns="http://www.w3.org/2000/svg">
<path d="M58.644 101.224C59.359 101.224 59.9386 100.751 59.9386 100.167C59.9386 99.5833 59.359 99.1102 58.644 99.1102C57.929 99.1102 57.3494 99.5833 57.3494 100.167C57.3494 100.751 57.929 101.224 58.644 101.224Z" fill="white" fill-opacity="0.5"/>
<path d="M43.3911 87.7158C43.8963 87.3035 44.716 87.3035 45.2212 87.7158C45.7263 88.1282 45.7263 88.7974 45.2212 89.2097C44.716 89.6221 43.8963 89.6221 43.3911 89.2097C42.886 88.7974 42.886 88.1287 43.3911 87.7158Z" fill="white" fill-opacity="0.5"/>
<path d="M29.0544 76.0122C29.5596 75.5998 30.3793 75.5998 30.8851 76.0122C31.3903 76.4246 31.3903 77.0937 30.8851 77.5061C30.3793 77.9185 29.5602 77.9185 29.0544 77.5061C28.5486 77.0937 28.5486 76.4246 29.0544 76.0122Z" fill="white" fill-opacity="0.5"/>
<path d="M14.7166 64.3086C15.2217 63.8962 16.0414 63.8962 16.5466 64.3086C17.0518 64.721 17.0518 65.3901 16.5466 65.8025C16.0414 66.2149 15.2217 66.2149 14.7166 65.8025C14.2107 65.3901 14.2107 64.721 14.7166 64.3086Z" fill="white" fill-opacity="0.5"/>
<path d="M0.37887 52.6039C0.88403 52.1915 1.70378 52.1915 2.20894 52.6039C2.7141 53.0168 2.7141 53.6854 2.20894 54.0978C1.70378 54.5102 0.88403 54.5102 0.37887 54.0978C-0.12629 53.6854 -0.12629 53.0168 0.37887 52.6039Z" fill="white" fill-opacity="0.5"/>
<path d="M70.5411 88.9608C71.0463 88.5484 71.866 88.5484 72.3718 88.9608C72.877 89.3737 72.877 90.0423 72.3718 90.4552C71.8667 90.8675 71.0469 90.8675 70.5411 90.4552C70.0359 90.0423 70.0359 89.3737 70.5411 88.9608Z" fill="white" fill-opacity="0.5"/>
<path d="M56.2033 77.2575C56.7084 76.8446 57.5281 76.8446 58.0333 77.2575C58.5385 77.6699 58.5385 78.3391 58.0333 78.7514C57.5281 79.1638 56.7084 79.1638 56.2033 78.7514C55.6981 78.3391 55.6981 77.6699 56.2033 77.2575Z" fill="white" fill-opacity="0.5"/>
<path d="M42.7811 67.3567C43.4961 67.3567 44.0757 66.8836 44.0757 66.2999C44.0757 65.7163 43.4961 65.2432 42.7811 65.2432C42.0662 65.2432 41.4866 65.7163 41.4866 66.2999C41.4866 66.8836 42.0662 67.3567 42.7811 67.3567Z" fill="white" fill-opacity="0.5"/>
<path d="M28.4433 55.6531C29.1582 55.6531 29.7378 55.1799 29.7378 54.5963C29.7378 54.0127 29.1582 53.5396 28.4433 53.5396C27.7283 53.5396 27.1487 54.0127 27.1487 54.5963C27.1487 55.1799 27.7283 55.6531 28.4433 55.6531Z" fill="white" fill-opacity="0.5"/>
<path d="M14.106 43.9494C14.821 43.9494 15.4006 43.4763 15.4006 42.8927C15.4006 42.309 14.821 41.8359 14.106 41.8359C13.3911 41.8359 12.8115 42.309 12.8115 42.8927C12.8115 43.4763 13.3911 43.9494 14.106 43.9494Z" fill="white" fill-opacity="0.5"/>
<path d="M83.3539 78.502C83.8591 78.0897 84.6788 78.0897 85.1839 78.502C85.6891 78.9144 85.6891 79.5836 85.1839 79.9959C84.6788 80.4083 83.8591 80.4083 83.3539 79.9959C82.8488 79.5836 82.8488 78.9149 83.3539 78.502Z" fill="white" fill-opacity="0.5"/>
<path d="M69.0154 66.7984C69.5206 66.386 70.3403 66.386 70.8455 66.7984C71.3507 67.2108 71.3507 67.8799 70.8455 68.2923C70.3403 68.7047 69.5206 68.7047 69.0154 68.2923C68.5103 67.8805 68.5103 67.2113 69.0154 66.7984Z" fill="white" fill-opacity="0.5"/>
<path d="M54.6782 55.0948C55.1834 54.6824 56.0031 54.6824 56.5083 55.0948C57.0135 55.5072 57.0135 56.1763 56.5083 56.5887C56.0031 57.001 55.1834 57.001 54.6782 56.5887C54.1731 56.1763 54.1731 55.5072 54.6782 55.0948Z" fill="white" fill-opacity="0.5"/>
<path d="M40.3409 43.3905C40.846 42.9776 41.6658 42.9776 42.1709 43.3905C42.6761 43.8029 42.6761 44.472 42.1709 44.8844C41.6658 45.2968 40.846 45.2968 40.3409 44.8844C39.8351 44.472 39.8351 43.8029 40.3409 43.3905Z" fill="white" fill-opacity="0.5"/>
<path d="M26.003 31.6865C26.5082 31.2741 27.3279 31.2741 27.8337 31.6865C28.3389 32.0988 28.3389 32.768 27.8337 33.1804C27.3286 33.5927 26.5089 33.5927 26.003 33.1804C25.4972 32.768 25.4972 32.0994 26.003 31.6865Z" fill="white" fill-opacity="0.5"/>
<path d="M97.0811 69.8476C97.7961 69.8476 98.3757 69.3744 98.3757 68.7908C98.3757 68.2072 97.7961 67.734 97.0811 67.734C96.3662 67.734 95.7866 68.2072 95.7866 68.7908C95.7866 69.3744 96.3662 69.8476 97.0811 69.8476Z" fill="white" fill-opacity="0.5"/>
<path d="M81.8282 56.3397C82.3334 55.9273 83.1531 55.9273 83.6583 56.3397C84.1635 56.7521 84.1635 57.4212 83.6583 57.8336C83.1531 58.246 82.3334 58.246 81.8282 57.8336C81.3231 57.4212 81.3231 56.7521 81.8282 56.3397Z" fill="white" fill-opacity="0.5"/>
<path d="M67.4904 44.6361C67.9962 44.2237 68.8153 44.2237 69.3211 44.6361C69.8263 45.0484 69.8263 45.7176 69.3211 46.13C68.8159 46.5423 67.9962 46.5423 67.4904 46.13C66.9852 45.7176 66.9852 45.0484 67.4904 44.6361Z" fill="white" fill-opacity="0.5"/>
<path d="M53.1537 32.9314C53.6588 32.519 54.4785 32.519 54.9837 32.9314C55.4889 33.3438 55.4889 34.0129 54.9837 34.4253C54.4785 34.8377 53.6588 34.8377 53.1537 34.4253C52.6479 34.0129 52.6479 33.3438 53.1537 32.9314Z" fill="white" fill-opacity="0.5"/>
<path d="M38.8158 21.2278C39.321 20.8154 40.1407 20.8154 40.6459 21.2278C41.1511 21.6401 41.1511 22.3093 40.6459 22.7217C40.1407 23.134 39.321 23.134 38.8158 22.7217C38.31 22.3093 38.31 21.6407 38.8158 21.2278Z" fill="white" fill-opacity="0.5"/>
<path d="M108.978 57.5846C109.483 57.1722 110.303 57.1722 110.808 57.5846C111.313 57.997 111.313 58.6661 110.808 59.0785C110.303 59.4909 109.483 59.4909 108.978 59.0785C108.472 58.6661 108.472 57.9975 108.978 57.5846Z" fill="white" fill-opacity="0.5"/>
<path d="M94.6404 45.881C95.1455 45.4686 95.9652 45.4686 96.4704 45.881C96.9756 46.2933 96.9756 46.9625 96.4704 47.3749C95.9652 47.7872 95.1455 47.7872 94.6404 47.3749C94.1352 46.9625 94.1352 46.2933 94.6404 45.881Z" fill="white" fill-opacity="0.5"/>
<path d="M81.2182 35.9805C81.9332 35.9805 82.5128 35.5074 82.5128 34.9238C82.5128 34.3401 81.9332 33.867 81.2182 33.867C80.5033 33.867 79.9237 34.3401 79.9237 34.9238C79.9237 35.5074 80.5033 35.9805 81.2182 35.9805Z" fill="white" fill-opacity="0.5"/>
<path d="M66.8804 24.2769C67.5954 24.2769 68.1749 23.8038 68.1749 23.2202C68.1749 22.6365 67.5954 22.1634 66.8804 22.1634C66.1654 22.1634 65.5858 22.6365 65.5858 23.2202C65.5858 23.8038 66.1654 24.2769 66.8804 24.2769Z" fill="white" fill-opacity="0.5"/>
<path d="M52.5425 12.5733C53.2575 12.5733 53.8371 12.1002 53.8371 11.5165C53.8371 10.9329 53.2575 10.4598 52.5425 10.4598C51.8276 10.4598 51.248 10.9329 51.248 11.5165C51.248 12.1002 51.8276 12.5733 52.5425 12.5733Z" fill="white" fill-opacity="0.5"/>
<path d="M122.705 48.9291C123.42 48.9291 124 48.456 124 47.8723C124 47.2887 123.42 46.8156 122.705 46.8156C121.99 46.8156 121.411 47.2887 121.411 47.8723C121.411 48.456 121.99 48.9291 122.705 48.9291Z" fill="white" fill-opacity="0.5"/>
<path d="M107.453 35.4223C107.958 35.0099 108.778 35.0099 109.283 35.4223C109.788 35.8346 109.788 36.5038 109.283 36.9161C108.778 37.3285 107.958 37.3285 107.453 36.9161C106.948 36.5038 106.948 35.8346 107.453 35.4223Z" fill="white" fill-opacity="0.5"/>
<path d="M93.1153 23.7176C93.6205 23.3052 94.4402 23.3052 94.9454 23.7176C95.4506 24.1299 95.4506 24.7991 94.9454 25.2115C94.4402 25.6238 93.6205 25.6238 93.1153 25.2115C92.6102 24.7991 92.6102 24.1299 93.1153 23.7176Z" fill="white" fill-opacity="0.5"/>
<path d="M78.7775 12.014C79.2827 11.6016 80.1024 11.6016 80.6076 12.014C81.1134 12.4263 81.1134 13.0955 80.6076 13.5079C80.1024 13.9202 79.2827 13.9202 78.7775 13.5079C78.2723 13.0955 78.2723 12.4269 78.7775 12.014Z" fill="white" fill-opacity="0.5"/>
<path d="M64.4408 0.309276C64.946 -0.103092 65.7657 -0.103092 66.2715 0.309276C66.7767 0.721644 66.7767 1.39081 66.2715 1.80317C65.7657 2.21554 64.9466 2.21554 64.4408 1.80317C63.935 1.39081 63.935 0.722183 64.4408 0.309276Z" fill="white" fill-opacity="0.5"/>
</svg>
