<svg width="30" height="30" viewBox="0 0 30 30" fill="none" xmlns="http://www.w3.org/2000/svg">
<path fill-rule="evenodd" clip-rule="evenodd" d="M12.685 5.3203C12.4171 5.54858 12.2832 5.66274 12.1401 5.75862C11.8122 5.9784 11.444 6.13093 11.0567 6.20739C10.8877 6.24076 10.7123 6.25475 10.3615 6.28274C9.47995 6.3531 9.03918 6.38827 8.67146 6.51816C7.82094 6.81857 7.15194 7.48756 6.85153 8.33808C6.72164 8.7058 6.68647 9.14657 6.61612 10.0281C6.58812 10.3789 6.57413 10.5544 6.54077 10.7233C6.46431 11.1106 6.31177 11.4789 6.09199 11.8068C5.99611 11.9498 5.88197 12.0838 5.65367 12.3516C5.08009 13.0247 4.79329 13.3612 4.62512 13.7131C4.23613 14.527 4.23613 15.473 4.62512 16.2869C4.7933 16.6388 5.08009 16.9753 5.65367 17.6484C5.88193 17.9162 5.99611 18.0502 6.09199 18.1932C6.31177 18.5211 6.46431 18.8894 6.54077 19.2767C6.57413 19.4457 6.58812 19.6211 6.61612 19.9719C6.68647 20.8534 6.72164 21.2942 6.85153 21.6619C7.15194 22.5124 7.82094 23.1815 8.67146 23.4819C9.03918 23.6117 9.47995 23.6469 10.3615 23.7173C10.7123 23.7452 10.8877 23.7593 11.0567 23.7926C11.444 23.8691 11.8122 24.0216 12.1401 24.2414C12.2832 24.3372 12.4171 24.4514 12.685 24.6797C13.3581 25.2533 13.6946 25.5401 14.0465 25.7083C14.8604 26.0972 15.8064 26.0972 16.6203 25.7083C16.9722 25.5401 17.3086 25.2533 17.9817 24.6797C18.2496 24.4514 18.3836 24.3372 18.5266 24.2414C18.8545 24.0216 19.2228 23.8691 19.6101 23.7926C19.779 23.7593 19.9545 23.7452 20.3053 23.7173C21.1868 23.6469 21.6276 23.6117 21.9953 23.4819C22.8458 23.1815 23.5148 22.5124 23.8153 21.6619C23.9451 21.2942 23.9803 20.8534 24.0507 19.9719C24.0786 19.6211 24.0927 19.4457 24.126 19.2767C24.2025 18.8894 24.355 18.5211 24.5748 18.1932C24.6706 18.0502 24.7848 17.9162 25.013 17.6484C25.5867 16.9753 25.8735 16.6388 26.0417 16.2869C26.4306 15.473 26.4306 14.527 26.0417 13.7131C25.8735 13.3612 25.5867 13.0247 25.013 12.3516C24.7848 12.0838 24.6706 11.9498 24.5748 11.8068C24.355 11.4789 24.2025 11.1106 24.126 10.7233C24.0927 10.5544 24.0786 10.3789 24.0507 10.0281C23.9803 9.14657 23.9451 8.7058 23.8153 8.33808C23.5148 7.48756 22.8458 6.81857 21.9953 6.51816C21.6276 6.38827 21.1868 6.3531 20.3053 6.28274C19.9545 6.25475 19.779 6.24076 19.6101 6.20739C19.2228 6.13093 18.8545 5.9784 18.5266 5.75862C18.3836 5.66274 18.2496 5.54859 17.9817 5.3203C17.3086 4.74672 16.9722 4.45992 16.6203 4.29174C15.8064 3.90275 14.8604 3.90275 14.0465 4.29174C13.6946 4.45991 13.3581 4.74672 12.685 5.3203ZM20.1442 12.6495C20.4938 12.2998 20.4938 11.733 20.1442 11.3834C19.7946 11.0338 19.2277 11.0338 18.8781 11.3834L13.5429 16.7186L11.7886 14.9644C11.439 14.6148 10.8721 14.6148 10.5225 14.9644C10.1729 15.3139 10.1729 15.8808 10.5225 16.2305L12.9098 18.6178C13.2594 18.9674 13.8263 18.9674 14.176 18.6178L20.1442 12.6495Z" fill="#0088E8"/>
</svg>
